<svg width="23" height="23" viewBox="0 0 23 23" fill="none" xmlns="http://www.w3.org/2000/svg">
<path fill-rule="evenodd" clip-rule="evenodd" d="M19.9434 13.4955C19.8227 13.1237 19.6133 12.783 19.322 12.4749C19.0167 12.1529 18.6157 11.9037 18.1183 11.7236C17.6204 11.5449 16.9812 11.4543 16.1935 11.4543H15.1245C15.2519 10.1385 15.7205 9.01869 16.5313 8.09294C17.3406 7.17006 18.4628 6.35787 19.8974 5.66116L19.0273 4.31279C17.1384 5.11731 15.5222 6.29414 14.1795 7.84856C12.8374 9.40442 12.169 10.9459 12.169 12.4749C12.169 14.1175 12.5566 15.406 13.3381 16.336C14.1196 17.2661 15.239 17.7295 16.6942 17.7295C17.6176 17.7295 18.4197 17.4214 19.102 16.8056C19.7834 16.1909 20.125 15.4707 20.125 14.6494C20.125 14.2531 20.0651 13.8674 19.9434 13.4955ZM10.1704 13.4955C10.0486 13.1237 9.83973 12.783 9.54791 12.4749C9.24364 12.1529 8.8421 11.9037 8.34425 11.7236C7.84735 11.5449 7.20815 11.4543 6.41992 11.4543H5.35042C5.47836 10.1385 5.94651 9.01869 6.75678 8.09294C7.56657 7.17006 8.68973 6.35787 10.1234 5.66116L9.25371 4.31279C7.36436 5.11731 5.74909 6.29414 4.40598 7.84856C3.06384 9.40442 2.39587 10.9459 2.39587 12.4749C2.39587 14.1175 2.78256 15.406 3.56456 16.336C4.34512 17.2661 5.46447 17.7295 6.92066 17.7295C7.84353 17.7295 8.6466 17.4214 9.32893 16.8056C10.0103 16.1909 10.3515 15.4707 10.3515 14.6494C10.3515 14.2531 10.2906 13.8674 10.1704 13.4955Z" fill="#159F0A"/>
</svg>
