<svg width="40" height="40" viewBox="0 0 40 40" fill="none" xmlns="http://www.w3.org/2000/svg">
<circle cx="20" cy="20" r="20" fill="white"/>
<path d="M20 19.9746C18.9 19.9746 18 19.6246 17.3 18.9246C16.6 18.2246 16.25 17.3246 16.25 16.2246C16.25 15.1246 16.6 14.2246 17.3 13.5246C18 12.8246 18.9 12.4746 20 12.4746C21.1 12.4746 22 12.8246 22.7 13.5246C23.4 14.2246 23.75 15.1246 23.75 16.2246C23.75 17.3246 23.4 18.2246 22.7 18.9246C22 19.6246 21.1 19.9746 20 19.9746ZM12 27.9996V25.6496C12 25.0163 12.1583 24.4746 12.475 24.0246C12.7917 23.5746 13.2 23.2329 13.7 22.9996C14.8167 22.4996 15.8875 22.1246 16.9125 21.8746C17.9375 21.6246 18.9667 21.4996 20 21.4996C21.0333 21.4996 22.0583 21.6288 23.075 21.8871C24.0917 22.1454 25.1577 22.5179 26.273 23.0045C26.7947 23.2399 27.213 23.5813 27.5278 24.0286C27.8426 24.4759 28 25.0163 28 25.6496V27.9996H12ZM13.5 26.4996H26.5V25.6496C26.5 25.3829 26.4208 25.1288 26.2625 24.8871C26.1042 24.6454 25.9083 24.4663 25.675 24.3496C24.6083 23.8329 23.6333 23.4788 22.75 23.2871C21.8667 23.0954 20.95 22.9996 20 22.9996C19.05 22.9996 18.125 23.0954 17.225 23.2871C16.325 23.4788 15.35 23.8329 14.3 24.3496C14.0667 24.4663 13.875 24.6454 13.725 24.8871C13.575 25.1288 13.5 25.3829 13.5 25.6496V26.4996ZM20 18.4746C20.65 18.4746 21.1875 18.2621 21.6125 17.8371C22.0375 17.4121 22.25 16.8746 22.25 16.2246C22.25 15.5746 22.0375 15.0371 21.6125 14.6121C21.1875 14.1871 20.65 13.9746 20 13.9746C19.35 13.9746 18.8125 14.1871 18.3875 14.6121C17.9625 15.0371 17.75 15.5746 17.75 16.2246C17.75 16.8746 17.9625 17.4121 18.3875 17.8371C18.8125 18.2621 19.35 18.4746 20 18.4746Z" fill="black"/>
</svg>
