<svg width="27" height="27" viewBox="0 0 27 27" fill="none" xmlns="http://www.w3.org/2000/svg">
<path d="M7.57281 2.53125C7.34781 2.53125 7.13406 2.62125 6.97656 2.77875L2.79156 6.96375C2.46531 7.29 2.46531 7.83 2.79156 8.15625C3.11781 8.4825 3.65781 8.4825 3.98406 8.15625L6.74031 5.4L6.74031 23.625C6.74031 24.0862 7.12281 24.4687 7.58406 24.4687C8.04531 24.4687 8.41656 24.0862 8.41656 23.625L8.41656 5.41125L11.1616 8.15625C11.4878 8.4825 12.0278 8.4825 12.3541 8.15625C12.5228 7.9875 12.6016 7.77375 12.6016 7.56C12.6016 7.34625 12.5228 7.1325 12.3541 6.96375L8.18031 2.79C8.10156 2.71125 8.00031 2.64375 7.88781 2.59875C7.87656 2.59875 7.86531 2.59875 7.85406 2.5875C7.76406 2.55375 7.67406 2.53125 7.57281 2.53125ZM18.5843 3.375L18.5843 21.5887L15.8393 18.8437C15.5131 18.5175 14.9731 18.5175 14.6468 18.8437C14.3206 19.17 14.3206 19.71 14.6468 20.0362L18.8206 24.21C18.8993 24.2887 19.0006 24.3562 19.1131 24.4012C19.1243 24.4012 19.1356 24.4012 19.1468 24.4125C19.2368 24.4462 19.3381 24.4687 19.4393 24.4687C19.6643 24.4687 19.8781 24.3787 20.0356 24.2212L24.2206 20.0362C24.3893 19.8675 24.4681 19.6537 24.4681 19.44C24.4681 19.2262 24.3893 19.0125 24.2206 18.8437C23.8943 18.5175 23.3543 18.5175 23.0281 18.8437L20.2718 21.6L20.2718 3.375C20.2718 2.91375 19.8893 2.53125 19.4281 2.53125C18.9668 2.53125 18.5843 2.91375 18.5843 3.375Z" fill="#939393"/>
</svg>
