<svg width="20" height="20" viewBox="0 0 20 20" fill="none" xmlns="http://www.w3.org/2000/svg">
<path d="M5.1862 17.4993C5.00564 17.4993 4.84592 17.4473 4.70703 17.3431C4.56814 17.2389 4.4987 17.1035 4.4987 16.9368V15.1868C4.09592 14.9646 3.80078 14.6452 3.61328 14.2285C3.42578 13.8118 3.33203 13.3674 3.33203 12.8952V4.62435C3.33203 3.59657 3.86328 2.84657 4.92578 2.37435C5.98828 1.90213 7.6862 1.66602 10.0195 1.66602C12.3251 1.66602 14.0091 1.90213 15.0716 2.37435C16.1341 2.84657 16.6654 3.59657 16.6654 4.62435V12.8952C16.6654 13.3674 16.5716 13.8118 16.3841 14.2285C16.1966 14.6452 15.9015 14.9646 15.4987 15.1868V16.9368C15.4987 17.1035 15.4293 17.2389 15.2904 17.3431C15.1515 17.4473 14.9918 17.4993 14.8112 17.4993H14.4154C14.2209 17.4993 14.0543 17.4473 13.9154 17.3431C13.7765 17.2389 13.707 17.1035 13.707 16.9368V15.791H6.29036V16.9368C6.29036 17.1035 6.22092 17.2389 6.08203 17.3431C5.94314 17.4473 5.77648 17.4993 5.58203 17.4993H5.1862ZM10.0195 4.08268H15.4154H4.58203H10.0195ZM13.707 10.1868H4.58203H15.4154H13.707ZM4.58203 8.93685H15.4154V5.33268H4.58203V8.93685ZM6.79036 13.4993C7.10981 13.4993 7.38064 13.3882 7.60286 13.166C7.82509 12.9438 7.9362 12.673 7.9362 12.3535C7.9362 12.0341 7.82509 11.7632 7.60286 11.541C7.38064 11.3188 7.10981 11.2077 6.79036 11.2077C6.47092 11.2077 6.20009 11.3188 5.97786 11.541C5.75564 11.7632 5.64453 12.0341 5.64453 12.3535C5.64453 12.673 5.75564 12.9438 5.97786 13.166C6.20009 13.3882 6.47092 13.4993 6.79036 13.4993ZM13.207 13.4993C13.5265 13.4993 13.7973 13.3882 14.0195 13.166C14.2418 12.9438 14.3529 12.673 14.3529 12.3535C14.3529 12.0341 14.2418 11.7632 14.0195 11.541C13.7973 11.3188 13.5265 11.2077 13.207 11.2077C12.8876 11.2077 12.6168 11.3188 12.3945 11.541C12.1723 11.7632 12.0612 12.0341 12.0612 12.3535C12.0612 12.673 12.1723 12.9438 12.3945 13.166C12.6168 13.3882 12.8876 13.4993 13.207 13.4993ZM4.58203 4.08268H15.4154C15.082 3.72157 14.4431 3.43685 13.4987 3.22852C12.5543 3.02018 11.3945 2.91602 10.0195 2.91602C8.38064 2.91602 7.1237 3.00977 6.2487 3.19727C5.3737 3.38477 4.81814 3.6799 4.58203 4.08268ZM6.29036 14.541H13.707C14.1931 14.541 14.5994 14.3535 14.9258 13.9785C15.2522 13.6035 15.4154 13.173 15.4154 12.6868V10.1868H4.58203V12.6868C4.58203 13.173 4.74523 13.6035 5.07161 13.9785C5.398 14.3535 5.80425 14.541 6.29036 14.541Z" fill="#939393"/>
</svg>
