<svg width="14" height="14" viewBox="0 0 14 14" fill="none" xmlns="http://www.w3.org/2000/svg">
<path d="M2.625 12.8327C2.39167 12.8327 2.1875 12.7452 2.0125 12.5702C1.8375 12.3952 1.75 12.191 1.75 11.9577V2.91602C1.75 2.68268 1.8375 2.47852 2.0125 2.30352C2.1875 2.12852 2.39167 2.04102 2.625 2.04102H3.57292V1.16602H4.52083V2.04102H9.47917V1.16602H10.4271V2.04102H11.375C11.6083 2.04102 11.8125 2.12852 11.9875 2.30352C12.1625 2.47852 12.25 2.68268 12.25 2.91602V11.9577C12.25 12.191 12.1625 12.3952 11.9875 12.5702C11.8125 12.7452 11.6083 12.8327 11.375 12.8327H2.625ZM2.625 11.9577H11.375V5.68685H2.625V11.9577ZM2.625 4.81185H11.375V2.91602H2.625V4.81185ZM7 8.16601C6.83472 8.16601 6.69618 8.11011 6.58437 7.99831C6.47257 7.8865 6.41667 7.74796 6.41667 7.58268C6.41667 7.4174 6.47257 7.27886 6.58437 7.16706C6.69618 7.05525 6.83472 6.99935 7 6.99935C7.16528 6.99935 7.30382 7.05525 7.41563 7.16706C7.52743 7.27886 7.58333 7.4174 7.58333 7.58268C7.58333 7.74796 7.52743 7.8865 7.41563 7.99831C7.30382 8.11011 7.16528 8.16601 7 8.16601ZM4.66667 8.16601C4.50139 8.16601 4.36285 8.11011 4.25104 7.99831C4.13924 7.8865 4.08333 7.74796 4.08333 7.58268C4.08333 7.4174 4.13924 7.27886 4.25104 7.16706C4.36285 7.05525 4.50139 6.99935 4.66667 6.99935C4.83194 6.99935 4.97049 7.05525 5.08229 7.16706C5.1941 7.27886 5.25 7.4174 5.25 7.58268C5.25 7.74796 5.1941 7.8865 5.08229 7.99831C4.97049 8.11011 4.83194 8.16601 4.66667 8.16601ZM9.33333 8.16601C9.16806 8.16601 9.02951 8.11011 8.91771 7.99831C8.8059 7.8865 8.75 7.74796 8.75 7.58268C8.75 7.4174 8.8059 7.27886 8.91771 7.16706C9.02951 7.05525 9.16806 6.99935 9.33333 6.99935C9.49861 6.99935 9.63715 7.05525 9.74896 7.16706C9.86076 7.27886 9.91667 7.4174 9.91667 7.58268C9.91667 7.74796 9.86076 7.8865 9.74896 7.99831C9.63715 8.11011 9.49861 8.16601 9.33333 8.16601ZM7 10.4993C6.83472 10.4993 6.69618 10.4434 6.58437 10.3316C6.47257 10.2198 6.41667 10.0813 6.41667 9.91601C6.41667 9.75074 6.47257 9.6122 6.58437 9.50039C6.69618 9.38858 6.83472 9.33268 7 9.33268C7.16528 9.33268 7.30382 9.38858 7.41563 9.50039C7.52743 9.6122 7.58333 9.75074 7.58333 9.91601C7.58333 10.0813 7.52743 10.2198 7.41563 10.3316C7.30382 10.4434 7.16528 10.4993 7 10.4993ZM4.66667 10.4993C4.50139 10.4993 4.36285 10.4434 4.25104 10.3316C4.13924 10.2198 4.08333 10.0813 4.08333 9.91601C4.08333 9.75074 4.13924 9.6122 4.25104 9.50039C4.36285 9.38858 4.50139 9.33268 4.66667 9.33268C4.83194 9.33268 4.97049 9.38858 5.08229 9.50039C5.1941 9.6122 5.25 9.75074 5.25 9.91601C5.25 10.0813 5.1941 10.2198 5.08229 10.3316C4.97049 10.4434 4.83194 10.4993 4.66667 10.4993ZM9.33333 10.4993C9.16806 10.4993 9.02951 10.4434 8.91771 10.3316C8.8059 10.2198 8.75 10.0813 8.75 9.91601C8.75 9.75074 8.8059 9.6122 8.91771 9.50039C9.02951 9.38858 9.16806 9.33268 9.33333 9.33268C9.49861 9.33268 9.63715 9.38858 9.74896 9.50039C9.86076 9.6122 9.91667 9.75074 9.91667 9.91601C9.91667 10.0813 9.86076 10.2198 9.74896 10.3316C9.63715 10.4434 9.49861 10.4993 9.33333 10.4993Z" fill="#939393"/>
</svg>
