<svg width="24" height="25" viewBox="0 0 24 25" fill="none" xmlns="http://www.w3.org/2000/svg">
<path d="M19.875 21.0469C17.8417 21.0469 15.8208 20.5469 13.8125 19.5469C11.8042 18.5469 10 17.2469 8.4 15.6469C6.8 14.0469 5.5 12.2427 4.5 10.2344C3.5 8.22604 3 6.20521 3 4.17188C3 3.85044 3.10714 3.58258 3.32142 3.3683C3.53571 3.15402 3.80357 3.04688 4.125 3.04688H7.625C7.85185 3.04688 8.0544 3.12604 8.23265 3.28437C8.41088 3.44271 8.525 3.65521 8.575 3.92188L9.25 7.07188C9.28333 7.30521 9.27917 7.51771 9.2375 7.70937C9.19583 7.90104 9.10833 8.06354 8.975 8.19688L6.475 10.7219C7.40833 12.2719 8.45417 13.6219 9.6125 14.7719C10.7708 15.9219 12.0833 16.8969 13.55 17.6969L15.925 15.2469C16.0917 15.0635 16.2833 14.9344 16.5 14.8594C16.7167 14.7844 16.9333 14.7719 17.15 14.8219L20.125 15.4719C20.3802 15.5281 20.5898 15.6547 20.7539 15.8516C20.918 16.0484 21 16.2802 21 16.5469V19.9219C21 20.2433 20.8929 20.5112 20.6786 20.7255C20.4643 20.9397 20.1964 21.0469 19.875 21.0469ZM5.725 9.34688L7.75 7.29688L7.175 4.54688H4.5C4.5 5.19688 4.6 5.90937 4.8 6.68438C5 7.45937 5.30833 8.34688 5.725 9.34688ZM14.95 18.4219C15.6333 18.7385 16.375 18.9969 17.175 19.1969C17.975 19.3969 18.75 19.5135 19.5 19.5469V16.8719L16.925 16.3469L14.95 18.4219Z" fill="white"/>
</svg>
