<svg width="24" height="24" viewBox="0 0 24 24" fill="none" xmlns="http://www.w3.org/2000/svg">
<path d="M18.7031 1H5.29688C2.92758 1 1 2.92758 1 5.29688V18.7031C1 21.0724 2.92758 23 5.29688 23H18.7031C21.0724 23 23 21.0724 23 18.7031V5.29688C23 2.92758 21.0724 1 18.7031 1ZM21.2812 18.7031C21.2812 20.1248 20.1248 21.2812 18.7031 21.2812H5.29688C3.87521 21.2812 2.71875 20.1248 2.71875 18.7031V5.29688C2.71875 3.87521 3.87521 2.71875 5.29688 2.71875H18.7031C20.1248 2.71875 21.2812 3.87521 21.2812 5.29688V18.7031ZM12 4.26562C7.73518 4.26562 4.26562 7.73518 4.26562 12C4.26562 16.2648 7.73518 19.7344 12 19.7344C16.2648 19.7344 19.7344 16.2648 19.7344 12C19.7344 7.73518 16.2648 4.26562 12 4.26562ZM12 18.0156C8.68303 18.0156 5.98438 15.317 5.98438 12C5.98438 8.68303 8.68303 5.98438 12 5.98438C15.317 5.98438 18.0156 8.68303 18.0156 12C18.0156 15.317 15.317 18.0156 12 18.0156ZM10.4961 12C10.4961 12.5934 10.0152 13.0742 9.42188 13.0742C8.82852 13.0742 8.34766 12.5934 8.34766 12C8.34766 11.4066 8.82852 10.9258 9.42188 10.9258C10.0152 10.9258 10.4961 11.4066 10.4961 12ZM15.6523 12C15.6523 12.5934 15.1715 13.0742 14.5781 13.0742C13.9848 13.0742 13.5039 12.5934 13.5039 12C13.5039 11.4066 13.9848 10.9258 14.5781 10.9258C15.1715 10.9258 15.6523 11.4066 15.6523 12Z" fill="#939393"/>
</svg>
