<svg width="24" height="24" viewBox="0 0 24 24" fill="none" xmlns="http://www.w3.org/2000/svg">
<path d="M11.25 22V17.125L7.525 20.85L6.45 19.8L11.25 15V12.75H9L4.3 17.45L3.2 16.425L6.875 12.75H2V11.25H6.875L3.125 7.5L4.2 6.425L9 11.25H11.25V8.975L6.55 4.275L7.6 3.175L11.25 6.85V2H12.75V6.85L16.5 3.1L17.55 4.175L12.75 8.975V11.25H15.025L19.75 6.525L20.825 7.575L17.15 11.25H22V12.75H17.15L20.85 16.475L19.825 17.55L15.025 12.75H12.75V15L17.55 19.825L16.525 20.9L12.75 17.125V22H11.25Z" fill="#939393"/>
</svg>
