<svg width="24" height="24" viewBox="0 0 24 24" fill="none" xmlns="http://www.w3.org/2000/svg">
<path d="M5.30078 22V14.5H4.05078V8.8C4.05078 8.31667 4.22995 7.89583 4.58828 7.5375C4.94661 7.17917 5.3653 7 5.84433 7H8.45723C8.93626 7 9.35495 7.17917 9.71328 7.5375C10.0716 7.89583 10.2508 8.31667 10.2508 8.8V14.5H9.00078V22H5.30078ZM7.15278 5.65C6.65145 5.65 6.22161 5.4715 5.86328 5.1145C5.50495 4.75748 5.32578 4.32832 5.32578 3.827C5.32578 3.32567 5.50428 2.89583 5.86128 2.5375C6.2183 2.17917 6.64746 2 7.14878 2C7.65012 2 8.07995 2.1785 8.43828 2.5355C8.79661 2.89252 8.97578 3.32168 8.97578 3.823C8.97578 4.32433 8.79728 4.75417 8.44028 5.1125C8.08326 5.47083 7.6541 5.65 7.15278 5.65ZM15.7508 22V16H13.1508L15.3008 8.225C15.421 7.83178 15.6428 7.52932 15.966 7.3176C16.2892 7.10587 16.6674 7 17.1008 7C17.5341 7 17.9124 7.10587 18.2356 7.3176C18.5588 7.52932 18.7805 7.83178 18.9008 8.225L21.0508 16H18.4508V22H15.7508ZM17.1028 5.65C16.6014 5.65 16.1716 5.4715 15.8133 5.1145C15.4549 4.75748 15.2758 4.32832 15.2758 3.827C15.2758 3.32567 15.4543 2.89583 15.8113 2.5375C16.1683 2.17917 16.5975 2 17.0988 2C17.6001 2 18.0299 2.1785 18.3883 2.5355C18.7466 2.89252 18.9258 3.32168 18.9258 3.823C18.9258 4.32433 18.7473 4.75417 18.3903 5.1125C18.0333 5.47083 17.6041 5.65 17.1028 5.65Z" fill="#939393"/>
</svg>
