<svg width="20" height="20" viewBox="0 0 20 20" fill="none" xmlns="http://www.w3.org/2000/svg">
<path d="M8.77214 13.791L14.668 7.89518L13.7096 6.95768L8.77214 11.8952L6.27214 9.39518L5.33464 10.3327L8.77214 13.791ZM10.0013 18.3327C8.86241 18.3327 7.78603 18.1139 6.77214 17.6764C5.75825 17.2389 4.87283 16.6417 4.11589 15.8848C3.35894 15.1278 2.76172 14.2424 2.32422 13.2285C1.88672 12.2146 1.66797 11.1382 1.66797 9.99935C1.66797 8.84657 1.88672 7.76324 2.32422 6.74935C2.76172 5.73546 3.35894 4.85352 4.11589 4.10352C4.87283 3.35352 5.75825 2.75977 6.77214 2.32227C7.78603 1.88477 8.86241 1.66602 10.0013 1.66602C11.1541 1.66602 12.2374 1.88477 13.2513 2.32227C14.2652 2.75977 15.1471 3.35352 15.8971 4.10352C16.6471 4.85352 17.2409 5.73546 17.6784 6.74935C18.1159 7.76324 18.3346 8.84657 18.3346 9.99935C18.3346 11.1382 18.1159 12.2146 17.6784 13.2285C17.2409 14.2424 16.6471 15.1278 15.8971 15.8848C15.1471 16.6417 14.2652 17.2389 13.2513 17.6764C12.2374 18.1139 11.1541 18.3327 10.0013 18.3327ZM10.0013 17.0827C11.9735 17.0827 13.6471 16.3917 15.0221 15.0098C16.3971 13.6278 17.0846 11.9577 17.0846 9.99935C17.0846 8.02713 16.3971 6.35352 15.0221 4.97852C13.6471 3.60352 11.9735 2.91602 10.0013 2.91602C8.04297 2.91602 6.37283 3.60352 4.99089 4.97852C3.60894 6.35352 2.91797 8.02713 2.91797 9.99935C2.91797 11.9577 3.60894 13.6278 4.99089 15.0098C6.37283 16.3917 8.04297 17.0827 10.0013 17.0827Z" fill="#488F60"/>
</svg>
