<svg width="10" height="10" viewBox="0 0 10 10" fill="none" xmlns="http://www.w3.org/2000/svg">
<g clip-path="url(#clip0_10948_125761)">
<path d="M6.52995 7.01107L6.9987 6.54232L5.34245 4.87565V2.7819H4.71745V5.12565L6.52995 7.01107ZM4.9987 9.16732C4.42925 9.16732 3.89106 9.05794 3.38411 8.83919C2.87717 8.62044 2.43446 8.32183 2.05599 7.94336C1.67752 7.56489 1.37891 7.12218 1.16016 6.61523C0.941406 6.10829 0.832031 5.5701 0.832031 5.00065C0.832031 4.43121 0.941406 3.89301 1.16016 3.38607C1.37891 2.87912 1.67752 2.43642 2.05599 2.05794C2.43446 1.67947 2.87717 1.38086 3.38411 1.16211C3.89106 0.943359 4.42925 0.833984 4.9987 0.833984C5.56814 0.833984 6.10634 0.943359 6.61328 1.16211C7.12023 1.38086 7.56293 1.67947 7.94141 2.05794C8.31988 2.43642 8.61849 2.87912 8.83724 3.38607C9.05599 3.89301 9.16537 4.43121 9.16537 5.00065C9.16537 5.5701 9.05599 6.10829 8.83724 6.61523C8.61849 7.12218 8.31988 7.56489 7.94141 7.94336C7.56293 8.32183 7.12023 8.62044 6.61328 8.83919C6.10634 9.05794 5.56814 9.16732 4.9987 9.16732ZM4.9987 8.54232C5.97092 8.54232 6.80425 8.1951 7.4987 7.50065C8.19314 6.80621 8.54037 5.97287 8.54037 5.00065C8.54037 4.02843 8.19314 3.1951 7.4987 2.50065C6.80425 1.80621 5.97092 1.45898 4.9987 1.45898C4.02648 1.45898 3.19314 1.80621 2.4987 2.50065C1.80425 3.1951 1.45703 4.02843 1.45703 5.00065C1.45703 5.97287 1.80425 6.80621 2.4987 7.50065C3.19314 8.1951 4.02648 8.54232 4.9987 8.54232Z" fill="#939393"/>
</g>
<defs>
<clipPath id="clip0_10948_125761">
<rect width="10" height="10" fill="white"/>
</clipPath>
</defs>
</svg>
