<svg width="8" height="8" viewBox="0 0 8 8" fill="none" xmlns="http://www.w3.org/2000/svg">
<path d="M5.17646 1.41187H0.470581V5.17657H5.17646V1.41187Z" stroke="#159F0A" stroke-width="0.8" stroke-linecap="round" stroke-linejoin="round"/>
<path d="M5.17651 2.82349H6.52105L7.52945 3.89491V5.17643H5.17651V2.82349Z" stroke="#159F0A" stroke-width="0.8" stroke-linecap="round" stroke-linejoin="round"/>
<path d="M2.11763 6.58828C2.50747 6.58828 2.82351 6.27224 2.82351 5.8824C2.82351 5.49255 2.50747 5.17651 2.11763 5.17651C1.72778 5.17651 1.41174 5.49255 1.41174 5.8824C1.41174 6.27224 1.72778 6.58828 2.11763 6.58828Z" stroke="#159F0A" stroke-width="0.8" stroke-linecap="round" stroke-linejoin="round"/>
<path d="M5.8824 6.58828C6.27224 6.58828 6.58828 6.27224 6.58828 5.8824C6.58828 5.49255 6.27224 5.17651 5.8824 5.17651C5.49255 5.17651 5.17651 5.49255 5.17651 5.8824C5.17651 6.27224 5.49255 6.58828 5.8824 6.58828Z" stroke="#159F0A" stroke-width="0.8" stroke-linecap="round" stroke-linejoin="round"/>
</svg>
