<svg width="24" height="25" viewBox="0 0 24 25" fill="none" xmlns="http://www.w3.org/2000/svg">
<g clip-path="url(#clip0_82_844)">
<path d="M8.21057 23.4041C11.6987 23.4041 14.5264 20.5764 14.5264 17.0883C14.5264 13.6002 11.6987 10.7725 8.21057 10.7725C4.72245 10.7725 1.89478 13.6002 1.89478 17.0883C1.89478 20.5764 4.72245 23.4041 8.21057 23.4041Z" fill="#ACDD6B"/>
<path fill-rule="evenodd" clip-rule="evenodd" d="M15.8713 11.4073C15.7346 11.5439 15.6847 11.7429 15.7207 11.9327C15.7659 12.1706 15.7895 12.4162 15.7895 12.6672C15.7895 14.8298 14.0364 16.583 11.8737 16.583C9.71108 16.583 7.95795 14.8298 7.95795 12.6672C7.95795 10.5046 9.71108 8.75145 11.8737 8.75145C12.1547 8.75145 12.4286 8.78101 12.6928 8.83722C12.8856 8.87827 13.0897 8.8297 13.2291 8.69031C13.4978 8.42158 13.4065 7.96848 13.0372 7.87905C12.6641 7.78873 12.2745 7.74092 11.8737 7.74092C9.15302 7.74092 6.94742 9.94646 6.94742 12.6672C6.94742 15.388 9.15302 17.5936 11.8737 17.5936C14.5945 17.5936 16.8001 15.388 16.8001 12.6672C16.8001 12.3038 16.7607 11.9497 16.6861 11.6088C16.6036 11.2321 16.1439 11.1346 15.8713 11.4073ZM19.2634 8.01515C19.0957 8.18284 19.0666 8.44299 19.181 8.65071C19.8373 9.842 20.2106 11.211 20.2106 12.6672C20.2106 17.2715 16.4781 21.0041 11.8737 21.0041C7.2694 21.0041 3.53689 17.2715 3.53689 12.6672C3.53689 8.0629 7.2694 4.33037 11.8737 4.33037C13.3586 4.33037 14.7528 4.71856 15.9604 5.399C16.1685 5.51629 16.4311 5.48827 16.6001 5.31931C16.8286 5.09081 16.7909 4.70958 16.5104 4.54905C15.1439 3.76691 13.5611 3.31984 11.8737 3.31984C6.71134 3.31984 2.52637 7.50478 2.52637 12.6672C2.52637 17.8296 6.71134 22.0145 11.8737 22.0145C17.0361 22.0145 21.2211 17.8296 21.2211 12.6672C21.2211 11.012 20.7909 9.4573 20.0362 8.10882C19.8774 7.82499 19.4934 7.7852 19.2634 8.01515ZM11.2422 12.6672C11.2422 12.3184 11.5249 12.0357 11.8737 12.0357C12.2226 12.0357 12.5053 12.3184 12.5053 12.6672C12.5053 13.016 12.2226 13.2988 11.8737 13.2988C11.5249 13.2988 11.2422 13.016 11.2422 12.6672Z" fill="#575757"/>
<path d="M20.755 1.29881V3.91224M20.755 3.91224H23.3685M20.755 3.91224L18.1416 6.52567M18.1416 6.52567L13.8948 10.7725M18.1416 6.52567V3.91224M18.1416 6.52567H20.755" stroke="#575757" stroke-linecap="round" stroke-linejoin="round"/>
</g>
<defs>
<clipPath id="clip0_82_844">
<rect width="24" height="24" fill="white" transform="translate(0 0.667236)"/>
</clipPath>
</defs>
</svg>
