<svg width="127" height="38" viewBox="0 0 127 38" fill="none" xmlns="http://www.w3.org/2000/svg">
<g clip-path="url(#clip0_11507_64613)">
<path d="M4.20895 31.9189C4.20895 32.728 3.41235 33.3139 2.18901 33.3139C1.22172 33.3139 0.453573 32.8396 0.140625 32.0863L0.93722 31.7515C1.19327 32.2816 1.62002 32.5606 2.18901 32.5606C2.81491 32.5606 3.21321 32.3095 3.21321 31.891C3.21321 31.5004 2.87181 31.2493 2.27436 31.2493H1.70537V30.5239H2.27436C2.78646 30.5239 3.07096 30.3007 3.07096 29.9101C3.07096 29.5195 2.75801 29.2684 2.24591 29.2684C1.70537 29.2684 1.30707 29.5195 1.10792 30.0217L0.339774 29.6311C0.681172 28.9615 1.39242 28.543 2.27436 28.543C3.32701 28.543 4.0098 29.0731 4.0098 29.8822C4.0098 30.3286 3.81065 30.6634 3.3839 30.8587C3.92445 30.9982 4.20895 31.3888 4.20895 31.9189Z" fill="white"/>
<path d="M15.1899 28.5977V33.257H14.2511V31.304H11.9467V33.257H11.0078V28.5977H11.9467V30.467H14.2511V28.5977H15.1899Z" fill="white"/>
<path d="M22.3327 32.4495V33.2587C22.2758 33.2866 22.162 33.2866 21.9913 33.2866C21.3939 33.2866 21.1378 33.0912 21.0809 32.5332C20.7395 33.0075 20.1136 33.3145 19.4308 33.3145C18.492 33.3145 17.8945 32.7564 17.8945 31.9473C17.8945 30.8034 19.0041 30.5523 19.9429 30.4128C20.6542 30.3291 20.9956 30.2454 20.9956 29.9106C20.9956 29.5479 20.5973 29.2968 19.9998 29.2968C19.4593 29.2968 18.9472 29.52 18.5773 29.9106L17.9799 29.2968C18.5204 28.7946 19.2032 28.5156 20.0283 28.5156C21.1663 28.5156 21.8491 29.1015 21.8491 30.0501V32.1426C21.8491 32.3379 21.9344 32.4495 22.162 32.4495H22.3327ZM20.9387 31.473V30.8592C20.768 30.9708 20.4835 31.0266 20.0283 31.0824C19.4308 31.1661 18.8049 31.2777 18.8049 31.8636C18.8049 32.31 19.0894 32.5332 19.5731 32.5332C20.3128 32.5611 20.9387 32.0589 20.9387 31.473Z" fill="white"/>
<path d="M30.6085 33.2291H29.6981V29.5742L28.3325 33.257H27.3083L25.9143 29.5742V33.257H25.0039V28.5977H26.4548L27.8204 32.2247L29.1576 28.5977H30.6085V33.2291Z" fill="white"/>
<path d="M37.9215 28.5982V33.2575H36.9827V29.8537L34.6782 33.2296H33.7109V28.5703H34.6498V31.9183L36.9542 28.5703H37.9215V28.5982Z" fill="white"/>
<path d="M49.274 33.2296H48.3352V29.4073H46.3722V31.0813C46.3722 32.7832 46.0023 33.2575 45.0919 33.2575C44.9212 33.2575 44.7505 33.2296 44.6367 33.2296V32.3647H44.8928C45.2911 32.3647 45.4333 32.2531 45.4333 30.9697V28.5703H49.274V33.2296Z" fill="white"/>
<path d="M54.4495 32.5332C55.1323 32.5332 55.5875 32.2821 55.8435 31.9194L56.4979 32.4774C56.0996 32.9518 55.4452 33.3145 54.4495 33.3145C52.8847 33.3145 52.0312 32.2821 52.0312 30.915C52.0312 29.4921 52.9701 28.5156 54.3641 28.5156C55.7582 28.5156 56.6686 29.4642 56.6686 30.915C56.6686 31.0266 56.6686 31.1103 56.6401 31.2219H52.9985C53.0839 32.031 53.6244 32.5332 54.4495 32.5332ZM52.9985 30.4965H55.7013C55.5875 29.7432 55.0754 29.2968 54.3641 29.2968C53.6244 29.2968 53.1408 29.7432 52.9985 30.4965Z" fill="white"/>
<path d="M62.8163 29.4352H60.3412V33.2296H59.4023V28.5703H62.8163V29.4352Z" fill="white"/>
<path d="M66.9693 31.0813L66.2865 31.723V33.2296H65.3477V28.5703H66.2865V30.6349L68.4202 28.5703H69.6151L67.6521 30.4396L69.7289 33.2296H68.5625L66.9693 31.0813Z" fill="white"/>
<path d="M71.75 30.915C71.75 29.4921 72.7173 28.5156 74.1398 28.5156C75.5907 28.5156 76.5296 29.4642 76.5296 30.915C76.5296 32.3379 75.5623 33.3145 74.1398 33.3145C72.6888 33.3145 71.75 32.3658 71.75 30.915ZM75.5907 30.915C75.5907 29.9385 75.0217 29.2968 74.1398 29.2968C73.2578 29.2968 72.6888 29.9385 72.6888 30.915C72.6888 31.8915 73.2578 32.5332 74.1398 32.5332C75.0217 32.5332 75.5907 31.8915 75.5907 30.915Z" fill="white"/>
<path d="M10.1281 10.1833C9.70139 10.0159 9.24619 9.96011 8.67719 9.96011C7.56765 9.96011 6.62881 10.3507 5.86066 11.104C5.09252 11.8573 4.69422 12.778 4.69422 13.8382V25.3331H0V5.91458H4.69422V6.77949C6.03136 5.77508 7.56765 5.30078 9.27464 5.30078C9.70139 5.30078 10.3842 5.35658 11.2661 5.49608V9.43L10.1281 10.1833Z" fill="white"/>
<path d="M26.1172 25.3047V24.4398C24.7801 25.4163 23.2438 25.8906 21.5368 25.8906C19.2039 25.8906 17.2409 25.0257 15.7046 23.268C14.1967 21.6497 13.457 19.6967 13.457 17.381V5.91406H18.1513V17.381C18.1513 18.4691 18.5495 19.3619 19.3461 20.1152C20.1143 20.8964 21.0247 21.287 22.1342 21.287C23.2438 21.287 24.1542 20.8964 24.9223 20.1152C25.6905 19.3619 26.0887 18.4691 26.0887 17.381V5.91406H30.8114V25.3047H26.1172Z" fill="white"/>
<path d="M50.4693 17.2144C50.2132 18.1072 49.7011 18.9163 48.9899 19.6417C47.8519 20.7577 46.5147 21.2878 44.9216 21.2878C43.2999 21.2878 41.9343 20.7298 40.8248 19.6417C39.6868 18.5257 39.1462 17.1865 39.1462 15.6241C39.1462 14.0617 39.7152 12.7225 40.8248 11.6065C41.9628 10.4905 43.3284 9.96035 44.9216 9.96035C46.5147 9.96035 47.8519 10.5184 48.9899 11.6065C49.758 12.3598 50.2701 13.2247 50.5262 14.1733C52.1763 14.2849 53.7979 14.5639 55.4195 14.9266C55.2773 12.4156 54.3384 10.2394 52.6315 8.42585C50.7253 6.36123 48.364 5.32893 45.5759 5.32893C43.1008 5.32893 40.967 6.13803 39.1747 7.75624V0H34.4805V25.3054H39.1747V23.4919C40.9386 25.0822 43.0723 25.8913 45.5759 25.8913C48.3924 25.8913 50.7538 24.8311 52.6884 22.7386C53.997 21.3436 54.8221 19.7533 55.2204 17.9677C53.6272 17.605 52.0625 17.3539 50.4693 17.2144Z" fill="white"/>
<path d="M62.5028 17.1578V5.91406H57.8086V15.5396C59.4018 16.0139 60.9665 16.544 62.5028 17.1578Z" fill="white"/>
<path d="M57.8086 18.6914V25.3037H62.5028V20.3933C60.9665 19.7795 59.4018 19.1936 57.8086 18.6914Z" fill="white"/>
<path d="M66.0898 21.9844V25.3324H70.7841V24.2443C69.2478 23.491 67.683 22.7098 66.0898 21.9844Z" fill="white"/>
<path d="M84.6676 5.91483H77.9819L70.7841 12.9736V0H66.0898V18.6652C67.683 19.3627 69.2478 20.116 70.7841 20.8414V19.5022L73.1739 17.1586L78.5793 25.3054H84.1555L76.5309 13.8664L84.6676 5.91483Z" fill="white"/>
<path d="M122.276 25.3052V13.8103C122.276 12.7222 121.878 11.8294 121.11 11.0761C120.342 10.3228 119.403 9.93221 118.322 9.93221C117.212 9.93221 116.273 10.3228 115.505 11.0761C114.737 11.8294 114.339 12.7501 114.339 13.8103V25.3052H109.645V5.91458H114.339V6.77949C115.676 5.77508 117.212 5.30078 118.919 5.30078C121.252 5.30078 123.187 6.16569 124.78 7.9234C125.548 8.7604 126.089 9.65321 126.458 10.6576C126.828 11.6341 126.999 12.6943 126.999 13.8103V25.3052H122.276Z" fill="white"/>
<path d="M85.3477 12.3327C85.8882 11.2446 86.7986 9.59853 87.9366 8.59412C90.1841 6.55741 92.7162 5.44141 95.7318 5.44141C97.9794 5.44141 99.9709 6.02731 101.763 7.22702C94.537 8.37092 92.83 8.90103 85.3477 12.3327Z" fill="#FFC600"/>
<path d="M91.6094 15.932C91.6094 13.1978 100.543 9.0686 103.245 8.37109C103.331 8.45479 103.416 8.51059 103.501 8.59429C105.635 10.7426 106.716 13.3094 106.716 16.2668C106.716 17.1596 106.716 17.327 106.403 18.9174C103.615 18.9174 91.7801 17.5502 91.6094 15.932Z" fill="#FFC600"/>
<path d="M101.167 25.6129C101.167 25.6129 98.7202 27.0638 95.7045 27.0638C92.6888 27.0638 90.0999 26.0036 87.9092 23.911C86.7144 22.7113 85.8609 21.4 85.3203 19.9492C90.4982 24.6085 101.167 25.6129 101.167 25.6129Z" fill="#FFC600"/>
<path d="M101.509 8.14676L100.03 8.64896L99.9727 8.42576L101.452 8.03516L101.509 8.14676Z" fill="#FFC600"/>
<path d="M97.923 9.31862C96.9557 9.62552 95.9884 9.93242 95.0212 10.2672L94.8789 9.82082C95.8462 9.51392 96.8419 9.26282 97.8377 9.01172L97.923 9.31862Z" fill="#FFC600"/>
<path d="M93.0302 11.0502C92.1198 11.4408 91.2379 11.9151 90.4413 12.4452L90.043 11.8314C90.9249 11.3013 91.8638 10.8549 92.8026 10.4922L93.0302 11.0502Z" fill="#FFC600"/>
<path d="M88.9313 13.7254C88.3338 14.395 87.9924 15.2041 87.964 16.0132L87.082 15.9574C87.1389 14.9251 87.6226 13.9486 88.3338 13.1953L88.9313 13.7254Z" fill="#FFC600"/>
<path d="M88.4205 17.5508C88.9041 18.1925 89.6723 18.7226 90.4973 19.1411L90.0421 19.9781C89.1317 19.5038 88.2498 18.9179 87.6523 18.0809L88.4205 17.5508Z" fill="#FFC600"/>
<path d="M92.4039 19.9219C93.3427 20.2567 94.2816 20.5078 95.2773 20.7589L95.0213 21.7354C94.0255 21.4843 93.0298 21.1774 92.0625 20.8426L92.4039 19.9219Z" fill="#FFC600"/>
<path d="M97.3526 21.2305L100.34 21.7606L100.141 22.8208L97.125 22.2349L97.3526 21.2305Z" fill="#FFC600"/>
<path d="M102.504 22.0977L105.52 22.572L105.349 23.6601L102.305 23.1858L102.504 22.0977Z" fill="#FFC600"/>
<path d="M107.682 22.8789L110.727 23.3811L110.527 24.4971L107.512 23.9949L107.682 22.8789Z" fill="#FFC600"/>
<path d="M112.944 23.8281C113.456 23.9397 113.996 24.0792 114.537 24.2745C114.821 24.3582 115.049 24.4698 115.305 24.5814C115.561 24.693 115.817 24.8046 116.045 24.9162L115.532 25.9764C115.077 25.7532 114.594 25.5579 114.138 25.3905C113.655 25.2231 113.171 25.0836 112.688 24.972L112.944 23.8281Z" fill="#FFC600"/>
<path d="M118.123 26.1133C118.578 26.476 119.033 26.8666 119.431 27.3688C119.829 27.871 120.142 28.4569 120.313 29.1544L119.09 29.4055C118.891 28.4569 118.179 27.6757 117.383 27.0619L118.123 26.1133Z" fill="#FFC600"/>
<path d="M119.802 31.9732C119.49 32.5312 119.091 33.0055 118.664 33.3961C118.238 33.8146 117.811 34.1215 117.413 34.4842L116.645 33.4798C117.043 33.145 117.441 32.866 117.783 32.5033C118.152 32.1685 118.465 31.7779 118.693 31.3594L119.802 31.9732Z" fill="#FFC600"/>
<path d="M115.478 35.7683C114.539 36.3264 113.515 36.7728 112.462 37.1076L112.035 35.88C113.002 35.5731 113.913 35.1545 114.795 34.6523L115.478 35.7683Z" fill="#FFC600"/>
<path d="M110.185 37.6936C109.104 37.8889 108.022 37.9726 106.941 37.9726V36.6892C107.966 36.6892 108.961 36.6055 109.957 36.4102L110.185 37.6936Z" fill="#FFC600"/>
<path d="M104.638 37.89C103.557 37.7784 102.505 37.611 101.48 37.3878L101.737 36.1602C102.732 36.3555 103.728 36.5229 104.752 36.6066L104.638 37.89Z" fill="#FFC600"/>
<path d="M99.288 36.8269C98.2638 36.5479 97.2681 36.2131 96.3008 35.8783L96.7275 34.7344C97.6948 35.0692 98.6621 35.3761 99.6294 35.6272L99.288 36.8269Z" fill="#FFC600"/>
<path d="M94.1977 35.0964C93.2304 34.7058 92.2915 34.3152 91.3242 33.8967L91.8363 32.8086C92.7752 33.2271 93.714 33.6177 94.6529 33.9804L94.1977 35.0964Z" fill="#FFC600"/>
<path d="M89.3299 32.9775L86.5703 31.6104L87.1109 30.5781L89.842 31.9173L89.3299 32.9775Z" fill="#FFC600"/>
<path d="M84.609 30.607L81.9062 29.1841L82.4468 28.1797L85.1495 29.6026L84.609 30.607Z" fill="#FFC600"/>
<path d="M79.9712 28.15C79.0608 27.6757 78.1788 27.1735 77.2969 26.6713L77.8374 25.7227L80.5402 27.1735L79.9712 28.15Z" fill="#FFC600"/>
<path d="M75.3919 25.6131L72.7461 24.1344L73.2013 23.2695L75.904 24.6924L75.3919 25.6131Z" fill="#FFC600"/>
<path d="M70.8395 23.1025L68.1367 21.6796L68.535 20.8984L71.2662 22.2655L70.8395 23.1025Z" fill="#FFC600"/>
<path d="M66.201 20.7281L63.4414 19.4168L63.7828 18.6914L66.5709 19.9469L66.201 20.7281Z" fill="#FFC600"/>
<path d="M61.4493 18.5819C60.5105 18.1913 59.5717 17.8286 58.6328 17.4938L58.8604 16.8242C59.8277 17.159 60.795 17.4938 61.7338 17.8565L61.4493 18.5819Z" fill="#FFC600"/>
<path d="M56.5855 16.7962C55.6182 16.4893 54.6509 16.2382 53.6836 16.015L53.7974 15.457C54.7931 15.6523 55.7889 15.9034 56.7846 16.1824L56.5855 16.7962Z" fill="#FFC600"/>
<path d="M51.5508 15.6227C50.5551 15.4832 49.5593 15.3716 48.5352 15.3716V14.9531C49.5593 14.9531 50.5835 15.0089 51.6077 15.1205L51.5508 15.6227Z" fill="#FFC600"/>
<path d="M46.4007 15.4291C45.405 15.5128 44.4092 15.6802 43.4135 15.9313L43.3281 15.6802C44.3239 15.4012 45.3196 15.2059 46.3438 15.0664L46.4007 15.4291Z" fill="#FFC600"/>
<path d="M41.365 16.601C40.8814 16.7963 40.4262 16.9916 39.971 17.2427L39.9141 17.1311C40.3693 16.88 40.8245 16.6568 41.3081 16.4336L41.365 16.601Z" fill="#FFC600"/>
<path d="M60.1726 5.35683C61.681 5.35683 62.9038 4.15766 62.9038 2.67841C62.9038 1.19917 61.681 0 60.1726 0C58.6642 0 57.4414 1.19917 57.4414 2.67841C57.4414 4.15766 58.6642 5.35683 60.1726 5.35683Z" fill="#FFC600"/>
</g>
<defs>
<clipPath id="clip0_11507_64613">
<rect width="127" height="38" fill="white"/>
</clipPath>
</defs>
</svg>
