<svg width="14" height="14" viewBox="0 0 14 14" fill="none" xmlns="http://www.w3.org/2000/svg">
<path d="M7 6.85352C7.28108 6.85352 7.52127 6.75343 7.72057 6.55326C7.91988 6.3531 8.01953 6.11247 8.01953 5.83138C8.01953 5.5503 7.91945 5.31011 7.71928 5.11081C7.51911 4.9115 7.27849 4.81185 6.9974 4.81185C6.71632 4.81185 6.47613 4.91193 6.27682 5.1121C6.07752 5.31227 5.97786 5.55289 5.97786 5.83398C5.97786 6.11506 6.07795 6.35525 6.27812 6.55456C6.47828 6.75386 6.71891 6.85352 7 6.85352ZM6.9987 11.6806C8.29175 10.5042 9.24696 9.4372 9.86432 8.47956C10.4817 7.52192 10.7904 6.67852 10.7904 5.94935C10.7904 4.80417 10.4244 3.86648 9.69236 3.1363C8.96036 2.40611 8.06247 2.04102 6.9987 2.04102C5.93492 2.04102 5.03704 2.40611 4.30504 3.1363C3.57303 3.86648 3.20703 4.80417 3.20703 5.94935C3.20703 6.67852 3.523 7.52192 4.15495 8.47956C4.78689 9.4372 5.73481 10.5042 6.9987 11.6806ZM6.9987 12.8327C5.43342 11.5007 4.26432 10.2636 3.49141 9.12122C2.71849 7.97886 2.33203 6.92157 2.33203 5.94935C2.33203 4.49102 2.80113 3.32921 3.73932 2.46393C4.67752 1.59865 5.76398 1.16602 6.9987 1.16602C8.23342 1.16602 9.31988 1.59865 10.2581 2.46393C11.1963 3.32921 11.6654 4.49102 11.6654 5.94935C11.6654 6.92157 11.2789 7.97886 10.506 9.12122C9.73307 10.2636 8.56398 11.5007 6.9987 12.8327Z" fill="#939393"/>
</svg>
