<svg width="108" height="33" viewBox="0 0 108 33" fill="none" xmlns="http://www.w3.org/2000/svg">
<g clip-path="url(#clip0_11507_202)">
<path d="M3.58077 27.7169C3.58077 28.4195 2.90335 28.9283 1.86303 28.9283C1.04045 28.9283 0.387223 28.5164 0.121094 27.8622L0.798513 27.5715C1.01626 28.0319 1.37916 28.2741 1.86303 28.2741C2.39529 28.2741 2.734 28.0561 2.734 27.6926C2.734 27.3534 2.44367 27.1354 1.93561 27.1354H1.45174V26.5054H1.93561C2.37109 26.5054 2.61303 26.3116 2.61303 25.9724C2.61303 25.6332 2.3469 25.4151 1.91142 25.4151C1.45174 25.4151 1.11303 25.6332 0.943675 26.0693L0.290449 25.7301C0.580771 25.1486 1.18561 24.7852 1.93561 24.7852C2.83077 24.7852 3.41142 25.2455 3.41142 25.9482C3.41142 26.3358 3.24206 26.6266 2.87916 26.7962C3.33884 26.9173 3.58077 27.2565 3.58077 27.7169Z" fill="white"/>
<path d="M12.9197 24.834V28.8802H12.1213V27.1842H10.1617V28.8802H9.36328V24.834H10.1617V26.4573H12.1213V24.834H12.9197Z" fill="white"/>
<path d="M18.9929 28.178V28.8807C18.9446 28.9049 18.8478 28.9049 18.7026 28.9049C18.1946 28.9049 17.9768 28.7353 17.9284 28.2507C17.6381 28.6626 17.1058 28.9291 16.5252 28.9291C15.7268 28.9291 15.2188 28.4445 15.2188 27.7419C15.2188 26.7485 16.1623 26.5304 16.9607 26.4093C17.5655 26.3366 17.8558 26.2639 17.8558 25.9732C17.8558 25.6582 17.5171 25.4401 17.0091 25.4401C16.5494 25.4401 16.1139 25.634 15.7994 25.9732L15.2913 25.4401C15.751 25.004 16.3317 24.7617 17.0333 24.7617C18.001 24.7617 18.5817 25.2705 18.5817 26.0943V27.9115C18.5817 28.0811 18.6542 28.178 18.8478 28.178H18.9929ZM17.8075 27.33V26.797C17.6623 26.8939 17.4204 26.9423 17.0333 26.9908C16.5252 27.0635 15.9929 27.1604 15.9929 27.6692C15.9929 28.0569 16.2349 28.2507 16.6462 28.2507C17.2752 28.2749 17.8075 27.8388 17.8075 27.33Z" fill="white"/>
<path d="M26.0318 28.856H25.2576V25.682L24.0963 28.8802H23.2253L22.0398 25.682V28.8802H21.2656V24.834H22.4995L23.6608 27.9838L24.7979 24.834H26.0318V28.856Z" fill="white"/>
<path d="M32.2486 24.8348V28.881H31.4502V25.9251L29.4905 28.8568H28.668V24.8105H29.4664V27.718L31.426 24.8105H32.2486V24.8348Z" fill="white"/>
<path d="M41.9045 28.8568H41.1061V25.5374H39.4367V26.9912C39.4367 28.4691 39.1222 28.881 38.348 28.881C38.2029 28.881 38.0577 28.8568 37.9609 28.8568V28.1057H38.1787C38.5174 28.1057 38.6384 28.0088 38.6384 26.8942V24.8105H41.9045V28.8568Z" fill="white"/>
<path d="M46.3065 28.2507C46.8871 28.2507 47.2742 28.0326 47.4919 27.7177L48.0484 28.2022C47.7097 28.6141 47.1532 28.9291 46.3065 28.9291C44.9758 28.9291 44.25 28.0326 44.25 26.8454C44.25 25.6097 45.0484 24.7617 46.2339 24.7617C47.4194 24.7617 48.1935 25.5855 48.1935 26.8454C48.1935 26.9423 48.1936 27.015 48.1694 27.1119H45.0726C45.1452 27.8146 45.6048 28.2507 46.3065 28.2507ZM45.0726 26.482H47.371C47.2742 25.8278 46.8387 25.4401 46.2339 25.4401C45.6048 25.4401 45.1936 25.8278 45.0726 26.482Z" fill="white"/>
<path d="M53.4189 25.5616H51.314V28.8568H50.5156V24.8105H53.4189V25.5616Z" fill="white"/>
<path d="M56.9533 26.9912L56.3726 27.5484V28.8568H55.5742V24.8105H56.3726V26.6035L58.1871 24.8105H59.2033L57.5339 26.4339L59.3 28.8568H58.3081L56.9533 26.9912Z" fill="white"/>
<path d="M61.0156 26.8454C61.0156 25.6097 61.8382 24.7617 63.0479 24.7617C64.2818 24.7617 65.0801 25.5855 65.0801 26.8454C65.0801 28.0811 64.2576 28.9291 63.0479 28.9291C61.814 28.9291 61.0156 28.1053 61.0156 26.8454ZM64.2818 26.8454C64.2818 25.9974 63.7979 25.4401 63.0479 25.4401C62.2979 25.4401 61.814 25.9974 61.814 26.8454C61.814 27.6934 62.2979 28.2507 63.0479 28.2507C63.7979 28.2507 64.2818 27.6934 64.2818 26.8454Z" fill="white"/>
<path d="M8.6129 8.8436C8.25 8.69823 7.8629 8.64977 7.37903 8.64977C6.43548 8.64977 5.6371 8.98898 4.98387 9.64316C4.33065 10.2973 3.99194 11.0969 3.99194 12.0176V22H0V5.13656H3.99194V5.88766C5.12903 5.01541 6.43548 4.60352 7.8871 4.60352C8.25 4.60352 8.83064 4.65197 9.58064 4.77312V8.18942L8.6129 8.8436Z" fill="white"/>
<path d="M22.2114 21.9759V21.2248C21.0743 22.0728 19.7679 22.4847 18.3163 22.4847C16.3324 22.4847 14.6631 21.7336 13.3566 20.2072C12.0743 18.8019 11.4453 17.1059 11.4453 15.0949V5.13672H15.4372V15.0949C15.4372 16.0398 15.776 16.8151 16.4534 17.4693C17.1066 18.1477 17.8808 18.4869 18.8243 18.4869C19.7679 18.4869 20.5421 18.1477 21.1953 17.4693C21.8485 16.8151 22.1872 16.0398 22.1872 15.0949V5.13672H26.2034V21.9759H22.2114Z" fill="white"/>
<path d="M42.921 14.9493C42.7033 15.7247 42.2678 16.4273 41.6629 17.0573C40.6952 18.0264 39.5581 18.4868 38.2033 18.4868C36.8242 18.4868 35.6629 18.0022 34.7194 17.0573C33.7516 16.0881 33.292 14.9251 33.292 13.5683C33.292 12.2115 33.7758 11.0485 34.7194 10.0793C35.6871 9.11013 36.8484 8.64978 38.2033 8.64978C39.5581 8.64978 40.6952 9.13436 41.6629 10.0793C42.3162 10.7335 42.7516 11.4846 42.9694 12.3084C44.3726 12.4053 45.7516 12.6476 47.1307 12.9626C47.0097 10.7819 46.2113 8.89207 44.7597 7.31718C43.1387 5.52423 41.1307 4.62775 38.7597 4.62775C36.6549 4.62775 34.8403 5.3304 33.3162 6.73568V0H29.3242V21.9758H33.3162V20.4009C34.8162 21.7819 36.6307 22.4846 38.7597 22.4846C41.1549 22.4846 43.1629 21.5639 44.8081 19.7467C45.921 18.5352 46.6226 17.1542 46.9613 15.6035C45.6065 15.2885 44.2758 15.0705 42.921 14.9493Z" fill="white"/>
<path d="M53.1521 14.901V5.13672H49.1602V13.4958C50.515 13.9076 51.8456 14.368 53.1521 14.901Z" fill="white"/>
<path d="M49.1602 16.2344V21.9767H53.1521V17.7123C51.8456 17.1793 50.515 16.6705 49.1602 16.2344Z" fill="white"/>
<path d="M56.2031 19.0918V21.9993H60.1951V21.0544C58.8886 20.4002 57.558 19.7218 56.2031 19.0918Z" fill="white"/>
<path d="M72.0015 5.13656H66.316L60.1951 11.2665V0H56.2031V16.2093C57.558 16.815 58.8886 17.4692 60.1951 18.0991V16.9361L62.2273 14.9009L66.8241 21.9758H71.566L65.0822 12.0419L72.0015 5.13656Z" fill="white"/>
<path d="M103.984 21.9758V11.9934C103.984 11.0485 103.645 10.2731 102.992 9.61894C102.339 8.96475 101.541 8.62554 100.621 8.62554C99.6777 8.62554 98.8793 8.96475 98.2261 9.61894C97.5728 10.2731 97.2341 11.0727 97.2341 11.9934V21.9758H93.2422V5.13656H97.2341V5.88766C98.3712 5.01541 99.6777 4.60352 101.129 4.60352C103.113 4.60352 104.758 5.35462 106.113 6.88105C106.766 7.60792 107.226 8.38325 107.541 9.2555C107.855 10.1035 108 11.0242 108 11.9934V21.9758H103.984Z" fill="white"/>
<path d="M72.5781 10.7092C73.0378 9.76426 73.812 8.33474 74.7797 7.4625C76.691 5.69377 78.8443 4.72461 81.4088 4.72461C83.3201 4.72461 85.0136 5.23342 86.5378 6.27527C80.3926 7.26866 78.941 7.72902 72.5781 10.7092Z" fill="#FFC600"/>
<path d="M77.9023 13.8356C77.9023 11.4612 85.4991 7.87526 87.7975 7.26953C87.8701 7.34222 87.9427 7.39068 88.0152 7.46336C89.8298 9.329 90.7491 11.5581 90.7491 14.1264C90.7491 14.9017 90.7491 15.0471 90.483 16.4281C88.112 16.4281 78.0475 15.2409 77.9023 13.8356Z" fill="#FFC600"/>
<path d="M86.0305 22.2427C86.0305 22.2427 83.9498 23.5026 81.3853 23.5026C78.8208 23.5026 76.6192 22.5819 74.7563 20.7647C73.7402 19.7229 73.0144 18.5841 72.5547 17.3242C76.9579 21.3705 86.0305 22.2427 86.0305 22.2427Z" fill="#FFC600"/>
<path d="M86.326 7.07543L85.0679 7.51156L85.0195 7.31772L86.2776 6.97852L86.326 7.07543Z" fill="#FFC600"/>
<path d="M83.2762 8.09269C82.4536 8.35921 81.631 8.62573 80.8085 8.91648L80.6875 8.52882C81.5101 8.2623 82.3569 8.04423 83.2036 7.82617L83.2762 8.09269Z" fill="#FFC600"/>
<path d="M79.1145 9.59591C78.3403 9.93512 77.5903 10.347 76.9129 10.8074L76.5742 10.2743C77.3242 9.81397 78.1226 9.42631 78.921 9.11133L79.1145 9.59591Z" fill="#FFC600"/>
<path d="M75.6312 11.9213C75.1231 12.5028 74.8328 13.2054 74.8086 13.9081L74.0586 13.8596C74.107 12.9631 74.5183 12.1151 75.1231 11.4609L75.6312 11.9213Z" fill="#FFC600"/>
<path d="M75.1962 15.2402C75.6075 15.7975 76.2607 16.2579 76.9623 16.6213L76.5752 17.3482C75.801 16.9363 75.051 16.4275 74.543 15.7006L75.1962 15.2402Z" fill="#FFC600"/>
<path d="M78.5833 17.3008C79.3817 17.5915 80.1801 17.8096 81.0268 18.0277L80.8091 18.8757C79.9623 18.6576 79.1155 18.3911 78.293 18.1003L78.5833 17.3008Z" fill="#FFC600"/>
<path d="M82.7912 18.4395L85.3315 18.8998L85.1622 19.8205L82.5977 19.3117L82.7912 18.4395Z" fill="#FFC600"/>
<path d="M87.1694 19.1895L89.7339 19.6013L89.5887 20.5463L87 20.1344L87.1694 19.1895Z" fill="#FFC600"/>
<path d="M91.5749 19.8691L94.1636 20.3053L93.9942 21.2744L91.4297 20.8383L91.5749 19.8691Z" fill="#FFC600"/>
<path d="M96.0498 20.6914C96.4853 20.7883 96.9449 20.9095 97.4046 21.0791C97.6465 21.1518 97.8401 21.2487 98.0578 21.3456C98.2756 21.4425 98.4933 21.5394 98.6869 21.6363L98.2514 22.557C97.8643 22.3632 97.453 22.1936 97.0659 22.0482C96.6546 21.9029 96.2433 21.7817 95.832 21.6848L96.0498 20.6914Z" fill="#FFC600"/>
<path d="M100.453 22.6797C100.84 22.9947 101.227 23.3339 101.566 23.77C101.905 24.2061 102.171 24.7149 102.316 25.3207L101.276 25.5387C101.106 24.7149 100.502 24.0365 99.8242 23.5035L100.453 22.6797Z" fill="#FFC600"/>
<path d="M101.881 27.7674C101.615 28.252 101.276 28.6639 100.913 29.0031C100.55 29.3665 100.187 29.6331 99.8485 29.948L99.1953 29.0758C99.534 28.785 99.8727 28.5427 100.163 28.2278C100.478 27.937 100.744 27.5978 100.937 27.2344L101.881 27.7674Z" fill="#FFC600"/>
<path d="M98.2048 31.0629C97.4064 31.5475 96.5354 31.9352 95.6402 32.2259L95.2773 31.1598C96.0999 30.8933 96.8741 30.5299 97.6241 30.0938L98.2048 31.0629Z" fill="#FFC600"/>
<path d="M93.7034 32.7337C92.784 32.9033 91.8647 32.976 90.9453 32.976V31.8614C91.8163 31.8614 92.6631 31.7887 93.5098 31.6191L93.7034 32.7337Z" fill="#FFC600"/>
<path d="M88.9863 32.9045C88.0669 32.8076 87.1717 32.6623 86.3008 32.4684L86.5185 31.4023C87.3653 31.5719 88.2121 31.7173 89.083 31.79L88.9863 32.9045Z" fill="#FFC600"/>
<path d="M84.4388 31.9832C83.5678 31.7409 82.721 31.4502 81.8984 31.1594L82.2613 30.166C83.0839 30.4568 83.9065 30.7233 84.7291 30.9413L84.4388 31.9832Z" fill="#FFC600"/>
<path d="M80.1076 30.4809C79.285 30.1417 78.4866 29.8025 77.6641 29.4391L78.0995 28.4941C78.8979 28.8576 79.6963 29.1968 80.4947 29.5118L80.1076 30.4809Z" fill="#FFC600"/>
<path d="M75.9679 28.6384L73.6211 27.4512L74.0808 26.5547L76.4034 27.7177L75.9679 28.6384Z" fill="#FFC600"/>
<path d="M71.9546 26.5806L69.6562 25.3449L70.1159 24.4727L72.4143 25.7083L71.9546 26.5806Z" fill="#FFC600"/>
<path d="M68.0086 24.4478C67.2344 24.0359 66.4844 23.5998 65.7344 23.1636L66.1941 22.3398L68.4924 23.5998L68.0086 24.4478Z" fill="#FFC600"/>
<path d="M64.1133 22.2423L61.8633 20.9581L62.2504 20.207L64.5488 21.4427L64.1133 22.2423Z" fill="#FFC600"/>
<path d="M60.2437 20.0625L57.9453 18.8269L58.284 18.1484L60.6066 19.3357L60.2437 20.0625Z" fill="#FFC600"/>
<path d="M56.2999 18.0031L53.9531 16.8643L54.2434 16.2344L56.6144 17.3247L56.2999 18.0031Z" fill="#FFC600"/>
<path d="M52.2584 16.1378C51.4601 15.7986 50.6617 15.4836 49.8633 15.1928L50.0568 14.6113C50.8794 14.9021 51.702 15.1928 52.5004 15.5078L52.2584 16.1378Z" fill="#FFC600"/>
<path d="M48.124 14.5868C47.3014 14.3203 46.4788 14.1022 45.6562 13.9084L45.753 13.4238C46.5998 13.5934 47.4466 13.8115 48.2933 14.0538L48.124 14.5868Z" fill="#FFC600"/>
<path d="M43.8419 13.5698C42.9951 13.4486 42.1483 13.3517 41.2773 13.3517V12.9883C42.1483 12.9883 43.0193 13.0367 43.8902 13.1337L43.8419 13.5698Z" fill="#FFC600"/>
<path d="M39.4606 13.399C38.6138 13.4716 37.767 13.617 36.9202 13.8351L36.8477 13.617C37.6944 13.3747 38.5412 13.2051 39.4122 13.084L39.4606 13.399Z" fill="#FFC600"/>
<path d="M35.1792 14.4169C34.7679 14.5865 34.3808 14.7561 33.9937 14.9741L33.9453 14.8772C34.3324 14.6591 34.7195 14.4653 35.1308 14.2715L35.1792 14.4169Z" fill="#FFC600"/>
<path d="M51.1702 4.65198C52.453 4.65198 53.4928 3.6106 53.4928 2.32599C53.4928 1.04138 52.453 0 51.1702 0C49.8875 0 48.8477 1.04138 48.8477 2.32599C48.8477 3.6106 49.8875 4.65198 51.1702 4.65198Z" fill="#FFC600"/>
</g>
<defs>
<clipPath id="clip0_11507_202">
<rect width="108" height="33" fill="white"/>
</clipPath>
</defs>
</svg>
