<svg width="185" height="62" viewBox="0 0 185 62" fill="none" xmlns="http://www.w3.org/2000/svg">
<path d="M26.1194 60.683L8.66517 49.7527C8.34747 49.5537 8.10616 49.2547 7.97982 48.9037L2.33569 33.2212L36.362 33.763C37.5202 33.7814 38.3123 34.9297 37.9105 36.0074L29.0852 59.6854C28.6408 60.8777 27.2028 61.3614 26.1194 60.683Z" fill="#159F0A"/>
<path d="M26.1194 60.683L8.66517 49.7527C8.34747 49.5537 8.10616 49.2547 7.97982 48.9037L2.33569 33.2212L36.362 33.763C37.5202 33.7814 38.3123 34.9297 37.9105 36.0074L29.0852 59.6854C28.6408 60.8777 27.2028 61.3614 26.1194 60.683Z" fill="url(#paint0_linear_62_98)" fill-opacity="0.2"/>
<path fill-rule="evenodd" clip-rule="evenodd" d="M37.0012 38.4474C36.9334 38.6294 36.7889 38.7731 36.6055 38.8407L8.78205 49.1237C8.43103 49.2534 8.0409 49.0734 7.91491 48.7234L2.66186 34.1274C2.50407 33.6891 2.83623 33.2292 3.30532 33.2367L36.362 33.7631C37.5202 33.7814 38.3123 34.9297 37.9105 36.0074L37.0012 38.4474Z" fill="#097B00"/>
<path d="M24.3547 3.51849L0.937367 25.9495C0.366862 26.496 0.172275 27.3236 0.440177 28.0642L7.89862 48.682C8.04162 49.0774 8.51293 49.2447 8.87605 49.0287L36.8164 32.4273C38.4893 31.4333 39.2054 29.3936 38.5171 27.5832L29.8303 4.73993C28.9779 2.49831 26.0918 1.85452 24.3547 3.51849Z" fill="#ADDA0B"/>
<path fill-rule="evenodd" clip-rule="evenodd" d="M10.5104 48.0563C14.4494 42.927 18.1033 35.2683 20.5091 26.3587C22.6476 18.4388 23.4339 10.8858 23.0015 4.81247L24.3524 3.5185C26.0895 1.85452 28.9756 2.49831 29.828 4.73993L38.5148 27.5832C39.2031 29.3935 38.4869 31.4333 36.8141 32.4273L10.5104 48.0563Z" fill="url(#paint1_radial_62_98)"/>
<path d="M69.736 41L63.464 33.3L60.832 36.044V41H56.324V21.4H60.832V30.556L69.512 21.4H74.552L66.432 30.136L75.028 41H69.736ZM82.4904 25.712C87.0824 25.712 89.7424 27.84 89.7424 32.404V41H85.6544V39.124C84.8424 40.496 83.2744 41.224 81.0624 41.224C77.5344 41.224 75.4344 39.264 75.4344 36.66C75.4344 34 77.3104 32.152 81.9024 32.152H85.3744C85.3744 30.276 84.2544 29.184 81.9024 29.184C80.3064 29.184 78.6544 29.716 77.5624 30.584L75.9944 27.532C77.6464 26.356 80.0824 25.712 82.4904 25.712ZM82.1544 38.284C83.6104 38.284 84.8704 37.612 85.3744 36.24V34.7H82.3784C80.3344 34.7 79.6904 35.456 79.6904 36.464C79.6904 37.556 80.6144 38.284 82.1544 38.284ZM95.8797 23.836C94.2557 23.836 93.1637 22.772 93.1637 21.4C93.1637 20.028 94.2557 18.964 95.8797 18.964C97.5037 18.964 98.5957 19.972 98.5957 21.316C98.5957 22.772 97.5037 23.836 95.8797 23.836ZM93.6957 41V25.936H98.0637V41H93.6957ZM111.274 25.712C114.83 25.712 117.518 27.784 117.518 32.376V41H113.15V33.048C113.15 30.612 112.03 29.492 110.098 29.492C107.998 29.492 106.486 30.78 106.486 33.552V41H102.118V25.936H106.29V27.7C107.466 26.412 109.23 25.712 111.274 25.712ZM127.553 25.712C132.145 25.712 134.805 27.84 134.805 32.404V41H130.717V39.124C129.905 40.496 128.337 41.224 126.125 41.224C122.597 41.224 120.497 39.264 120.497 36.66C120.497 34 122.373 32.152 126.965 32.152H130.437C130.437 30.276 129.317 29.184 126.965 29.184C125.369 29.184 123.717 29.716 122.625 30.584L121.057 27.532C122.709 26.356 125.145 25.712 127.553 25.712ZM127.217 38.284C128.673 38.284 129.933 37.612 130.437 36.24V34.7H127.441C125.397 34.7 124.753 35.456 124.753 36.464C124.753 37.556 125.677 38.284 127.217 38.284ZM136.419 21.4H144.875V41H140.339V25.04H136.419V21.4ZM154.496 37.304H162.924V41H148.111V38.06L155.672 30.92C157.408 29.268 157.716 28.26 157.716 27.308C157.716 25.768 156.652 24.872 154.579 24.872C152.9 24.872 151.472 25.516 150.52 26.832L147.216 24.704C148.728 22.492 151.472 21.064 155 21.064C159.368 21.064 162.28 23.304 162.28 26.86C162.28 28.764 161.748 30.5 159.004 33.048L154.496 37.304ZM173.951 29.38C177.479 29.94 179.271 32.124 179.271 35.008C179.271 38.312 176.723 41.336 171.151 41.336C168.407 41.336 165.579 40.58 163.675 39.236L165.439 35.764C166.923 36.884 168.995 37.528 171.039 37.528C173.307 37.528 174.707 36.604 174.707 35.008C174.707 33.524 173.615 32.6 171.039 32.6H168.967V29.604L172.999 25.04H164.655V21.4H178.375V24.34L173.951 29.38Z" fill="#5F7672"/>
<ellipse cx="22.8196" cy="22.0602" rx="3.28752" ry="3.94502" transform="rotate(30 22.8196 22.0602)" fill="white"/>
<defs>
<linearGradient id="paint0_linear_62_98" x1="24.8571" y1="35.1667" x2="25.1879" y2="52.5001" gradientUnits="userSpaceOnUse">
<stop/>
<stop offset="1" stop-opacity="0"/>
</linearGradient>
<radialGradient id="paint1_radial_62_98" cx="0" cy="0" r="1" gradientUnits="userSpaceOnUse" gradientTransform="translate(33.4026 26.0696) rotate(123.854) scale(50.9285 31.5789)">
<stop offset="0.170417" stop-color="#7CBF04"/>
<stop offset="1" stop-color="#7CBF04" stop-opacity="0"/>
</radialGradient>
</defs>
</svg>
