<svg width="10" height="9" viewBox="0 0 10 9" fill="none" xmlns="http://www.w3.org/2000/svg">
<g clip-path="url(#clip0_82_920)">
<path d="M4.75 6.1875C4.45943 6.1875 4.16887 6.09219 3.92102 5.89904L0.25 3.04453V7.03125C0.25 7.49707 0.627754 7.875 1.09375 7.875H8.40625C8.87225 7.875 9.25 7.49725 9.25 7.03125V3.04453L5.57969 5.90098C5.33184 6.09258 5.04004 6.1875 4.75 6.1875ZM0.536348 2.5541L4.26643 5.45625C4.55102 5.67773 4.94969 5.67773 5.23428 5.45625L8.96436 2.5541C9.12871 2.41348 9.25 2.19727 9.25 1.96875C9.25 1.50275 8.87207 1.125 8.40625 1.125H1.09375C0.627754 1.125 0.25 1.50275 0.25 1.96875C0.25 2.19727 0.355645 2.41348 0.536348 2.5541Z" fill="#159F0A"/>
</g>
<defs>
<clipPath id="clip0_82_920">
<rect width="9" height="9" fill="white" transform="translate(0.25)"/>
</clipPath>
</defs>
</svg>
