<svg width="13" height="13" viewBox="0 0 13 13" fill="none" xmlns="http://www.w3.org/2000/svg">
<path d="M6.0125 4.74023C5.47083 4.74023 4.93368 4.82826 4.40104 5.0043C3.8684 5.18034 3.38542 5.42635 2.95208 5.74232L3.54792 11.1048H9.45208L10.0885 5.2819H9.43854C9.10228 5.2819 8.79478 5.25707 8.51603 5.20742C8.23729 5.15777 7.85417 5.06523 7.36667 4.92982C7.14097 4.86662 6.91753 4.81923 6.69635 4.78763C6.47517 4.75603 6.24722 4.74023 6.0125 4.74023ZM2.85729 4.83503C3.31771 4.54614 3.82101 4.32496 4.36719 4.17148C4.91337 4.01801 5.46181 3.93676 6.0125 3.92773C6.28333 3.92773 6.55191 3.94579 6.81823 3.9819C7.08455 4.01801 7.33958 4.07218 7.58333 4.1444C8.04491 4.27079 8.39801 4.35655 8.64264 4.40169C8.88727 4.44683 9.14806 4.4694 9.425 4.4694H10.1833L10.4677 1.89648H2.53229L2.85729 4.83503ZM3.54792 11.9173C3.33802 11.9173 3.15521 11.8499 2.99948 11.7151C2.84375 11.5804 2.75573 11.4085 2.73542 11.1996L1.625 1.08398H11.375L10.2646 11.1996C10.2443 11.4085 10.1562 11.5804 10.0005 11.7151C9.84479 11.8499 9.66198 11.9173 9.45208 11.9173H3.54792ZM6.0125 11.1048H9.43854H3.54792H6.0125Z" fill="#939393"/>
</svg>
