<svg width="24" height="24" viewBox="0 0 24 24" fill="none" xmlns="http://www.w3.org/2000/svg">
<path d="M14.5264 20.842C18.0145 20.842 20.8422 18.0144 20.8422 14.5262C20.8422 11.0381 18.0145 8.21045 14.5264 8.21045C11.0382 8.21045 8.21057 11.0381 8.21057 14.5262C8.21057 18.0144 11.0382 20.842 14.5264 20.842Z" fill="#ACDD6B"/>
<path d="M16.421 16.4211L20.8421 20.8422" stroke="#575757" stroke-linecap="round" stroke-linejoin="round"/>
<path d="M3.15784 10.7369C3.15784 14.9226 6.55106 18.3159 10.7368 18.3159C12.8332 18.3159 14.731 17.4646 16.1031 16.0889C17.4704 14.718 18.3157 12.8262 18.3157 10.7369C18.3157 6.55118 14.9225 3.15796 10.7368 3.15796C6.55106 3.15796 3.15784 6.55118 3.15784 10.7369Z" stroke="#575757" stroke-linecap="round" stroke-linejoin="round"/>
<path d="M8.46313 10.9894L9.97892 12.5052L13.0105 9.47363" stroke="#575757" stroke-linecap="round" stroke-linejoin="round"/>
</svg>
