<svg width="24" height="24" viewBox="0 0 24 24" fill="none" xmlns="http://www.w3.org/2000/svg">
<g clip-path="url(#clip0_82_575)">
<path d="M6.31579 24C9.8039 24 12.6316 21.1723 12.6316 17.6842C12.6316 14.1961 9.8039 11.3684 6.31579 11.3684C2.82768 11.3684 0 14.1961 0 17.6842C0 21.1723 2.82768 24 6.31579 24Z" fill="#ACDD6B"/>
<path d="M12 22C17.5228 22 22 17.5228 22 12C22 6.47717 17.5228 2 12 2C6.47714 2 2 6.47717 2 12C2 17.5228 6.47714 22 12 22Z" stroke="#575757" stroke-linecap="round" stroke-linejoin="round"/>
<path fill-rule="evenodd" clip-rule="evenodd" d="M12 3.91577C12.9472 3.91577 13.8564 4.07868 14.701 4.37801C14.9875 4.47954 15.0981 4.81779 14.946 5.08103C14.818 5.30291 14.5456 5.39319 14.3034 5.3098C13.5813 5.06125 12.8064 4.9263 12 4.9263C8.09329 4.9263 4.9263 8.09329 4.9263 12C4.9263 13.2229 5.23663 14.3733 5.78285 15.3768C5.87412 15.5445 5.87741 15.7479 5.78196 15.9132C5.59002 16.2457 5.11975 16.264 4.93292 15.9287C4.28494 14.7656 3.91577 13.4259 3.91577 12C3.91577 7.53522 7.53522 3.91577 12 3.91577ZM8.53868 18.7174C8.3943 18.9674 8.48708 19.2888 8.75146 19.405C9.74562 19.8418 10.8445 20.0842 12 20.0842C16.4647 20.0842 20.0842 16.4647 20.0842 12C20.0842 10.3368 19.582 8.79093 18.7208 7.50573C18.518 7.20301 18.0769 7.23725 17.8947 7.55278C17.7919 7.73082 17.8051 7.95162 17.9178 8.12348C18.6486 9.23676 19.0737 10.5688 19.0737 12C19.0737 15.9066 15.9066 19.0737 12 19.0737C11.0116 19.0737 10.0704 18.8709 9.21605 18.5048C8.96777 18.3984 8.67377 18.4835 8.53868 18.7174Z" fill="#575757"/>
<path d="M14.1053 8.97024C13.6602 8.75336 13.1601 8.63159 12.6316 8.63159C10.7713 8.63159 9.26318 10.1397 9.26318 12.0001C9.26318 13.8604 10.7713 15.3685 12.6316 15.3685C13.1601 15.3685 13.6602 15.2468 14.1053 15.0299" stroke="#575757" stroke-linecap="round" stroke-linejoin="round"/>
<path d="M8.42102 11.158H13.0526" stroke="#575757" stroke-linecap="round" stroke-linejoin="round"/>
<path d="M8.42102 12.842H13.0526" stroke="#575757" stroke-linecap="round" stroke-linejoin="round"/>
</g>
<defs>
<clipPath id="clip0_82_575">
<rect width="24" height="24" fill="white"/>
</clipPath>
</defs>
</svg>
