<svg width="13" height="13" viewBox="0 0 13 13" fill="none" xmlns="http://www.w3.org/2000/svg">
<g clip-path="url(#clip0_10948_125709)">
<path d="M3.14167 8.16497L2.28854 7.31185C2.92049 6.6799 3.58177 6.20595 4.2724 5.88997C4.96302 5.574 5.70556 5.41602 6.5 5.41602C7.29444 5.41602 8.03698 5.574 8.7276 5.88997C9.41823 6.20595 10.0795 6.6799 10.7115 7.31185L9.85833 8.16497C9.30764 7.61428 8.75243 7.22157 8.19271 6.98685C7.63299 6.75213 7.06875 6.63477 6.5 6.63477C5.93125 6.63477 5.36701 6.75213 4.80729 6.98685C4.24757 7.22157 3.69236 7.61428 3.14167 8.16497ZM0.853125 5.87643L0 5.02331C0.839583 4.16567 1.81684 3.47504 2.93177 2.95143C4.0467 2.42782 5.23611 2.16602 6.5 2.16602C7.76389 2.16602 8.9533 2.42782 10.0682 2.95143C11.1832 3.47504 12.1604 4.16567 13 5.02331L12.1469 5.87643C11.3524 5.1181 10.4835 4.51324 9.5401 4.06185C8.5967 3.61046 7.58333 3.38477 6.5 3.38477C5.41667 3.38477 4.4033 3.61046 3.4599 4.06185C2.51649 4.51324 1.64757 5.1181 0.853125 5.87643ZM6.5 11.5233L8.50417 9.5056C8.24236 9.24379 7.94219 9.03841 7.60365 8.88945C7.2651 8.74049 6.89722 8.66602 6.5 8.66602C6.10278 8.66602 5.7349 8.74049 5.39635 8.88945C5.05781 9.03841 4.75764 9.24379 4.49583 9.5056L6.5 11.5233Z" fill="#939393"/>
</g>
<defs>
<clipPath id="clip0_10948_125709">
<rect width="13" height="13" fill="white"/>
</clipPath>
</defs>
</svg>
