<svg width="20" height="20" viewBox="0 0 20 20" fill="none" xmlns="http://www.w3.org/2000/svg">
<path d="M9.3763 18.3327V14.2702L6.27214 17.3744L5.3763 16.4994L9.3763 12.4994V10.6243H7.5013L3.58464 14.541L2.66797 13.6869L5.73047 10.6243H1.66797V9.37435H5.73047L2.60547 6.24935L3.5013 5.35352L7.5013 9.37435H9.3763V7.47852L5.45964 3.56185L6.33464 2.64518L9.3763 5.70768V1.66602H10.6263V5.70768L13.7513 2.58268L14.6263 3.47852L10.6263 7.47852V9.37435H12.5221L16.4596 5.43685L17.3555 6.31185L14.293 9.37435H18.3346V10.6243H14.293L17.3763 13.7285L16.5221 14.6244L12.5221 10.6243H10.6263V12.4994L14.6263 16.5202L13.7721 17.416L10.6263 14.2702V18.3327H9.3763Z" fill="#939393"/>
</svg>
