<svg width="13" height="13" viewBox="0 0 13 13" fill="none" xmlns="http://www.w3.org/2000/svg">
<g clip-path="url(#clip0_10948_125703)">
<path d="M10.1322 0.541016H2.87044C1.58707 0.541016 0.542969 1.58512 0.542969 2.86849V10.1302C0.542969 11.4136 1.58707 12.4577 2.87044 12.4577H10.1322C11.4155 12.4577 12.4596 11.4136 12.4596 10.1302V2.86849C12.4596 1.58512 11.4155 0.541016 10.1322 0.541016ZM11.5286 10.1302C11.5286 10.9003 10.9022 11.5267 10.1322 11.5267H2.87044C2.10037 11.5267 1.47396 10.9003 1.47396 10.1302V2.86849C1.47396 2.09842 2.10037 1.47201 2.87044 1.47201H10.1322C10.9022 1.47201 11.5286 2.09842 11.5286 2.86849V10.1302ZM6.5013 2.3099C4.19119 2.3099 2.31185 4.18924 2.31185 6.49935C2.31185 8.80946 4.19119 10.6888 6.5013 10.6888C8.81141 10.6888 10.6908 8.80946 10.6908 6.49935C10.6908 4.18924 8.81141 2.3099 6.5013 2.3099ZM6.5013 9.75781C4.70461 9.75781 3.24284 8.29604 3.24284 6.49935C3.24284 4.70266 4.70461 3.24089 6.5013 3.24089C8.298 3.24089 9.75976 4.70266 9.75976 6.49935C9.75976 8.29604 8.298 9.75781 6.5013 9.75781ZM5.68669 6.49935C5.68669 6.82075 5.42622 7.08122 5.10482 7.08122C4.78342 7.08122 4.52295 6.82075 4.52295 6.49935C4.52295 6.17795 4.78342 5.91748 5.10482 5.91748C5.42622 5.91748 5.68669 6.17795 5.68669 6.49935ZM8.47965 6.49935C8.47965 6.82075 8.21919 7.08122 7.89779 7.08122C7.57639 7.08122 7.31592 6.82075 7.31592 6.49935C7.31592 6.17795 7.57639 5.91748 7.89779 5.91748C8.21919 5.91748 8.47965 6.17795 8.47965 6.49935Z" fill="#939393"/>
</g>
<defs>
<clipPath id="clip0_10948_125703">
<rect width="13" height="13" fill="white"/>
</clipPath>
</defs>
</svg>
