<svg width="24" height="24" viewBox="0 0 24 24" fill="none" xmlns="http://www.w3.org/2000/svg">
<path d="M17.3333 22.6666C21.0152 22.6666 24 19.6818 24 15.9999C24 12.318 21.0152 9.33325 17.3333 9.33325C13.6514 9.33325 10.6666 12.318 10.6666 15.9999C10.6666 19.6818 13.6514 22.6666 17.3333 22.6666Z" fill="#ACDD6B"/>
<path d="M16.8888 10.0001H18.6C19.005 10.0001 19.3333 10.3358 19.3333 10.7501V19.9167C19.3333 20.331 19.005 20.6667 18.6 20.6667H5.39996C4.99495 20.6667 4.66663 20.331 4.66663 19.9167V10.7501C4.66663 10.3358 4.99495 10.0001 5.39996 10.0001H7.11109M16.8888 10.0001V7.66675C16.8888 6.00009 15.9111 2.66675 12 2.66675C8.08883 2.66675 7.11109 6.00009 7.11109 7.66675V10.0001M16.8888 10.0001H7.11109" stroke="#575757" stroke-linecap="round" stroke-linejoin="round"/>
<path d="M10.9047 16.0436H11.4381V15.736L11.1718 15.582L10.9047 16.0436ZM12.7143 16.0436L12.4472 15.582L12.1809 15.736V16.0436H12.7143ZM10.5333 14.4762C10.5333 13.7714 11.1047 13.2 11.8095 13.2V12.1333C10.5156 12.1333 9.46667 13.1822 9.46667 14.4762H10.5333ZM11.1718 15.582C10.789 15.3605 10.5333 14.9478 10.5333 14.4762H9.46667C9.46667 15.344 9.93881 16.101 10.6377 16.5052L11.1718 15.582ZM11.4381 17.1903V16.0436H10.3714V17.1903H11.4381ZM11.8095 17.5618C11.6044 17.5618 11.4381 17.3954 11.4381 17.1903H10.3714C10.3714 17.9846 11.0153 18.6284 11.8095 18.6284V17.5618ZM12.1809 17.1903C12.1809 17.3954 12.0147 17.5618 11.8095 17.5618V18.6284C12.6037 18.6284 13.2476 17.9846 13.2476 17.1903H12.1809ZM12.1809 16.0436V17.1903H13.2476V16.0436H12.1809ZM13.0857 14.4762C13.0857 14.9478 12.8301 15.3605 12.4472 15.582L12.9813 16.5052C13.6802 16.101 14.1524 15.344 14.1524 14.4762H13.0857ZM11.8095 13.2C12.5143 13.2 13.0857 13.7714 13.0857 14.4762H14.1524C14.1524 13.1822 13.1035 12.1333 11.8095 12.1333V13.2Z" fill="#575757"/>
</svg>
