<svg width="14" height="14" viewBox="0 0 14 14" fill="none" xmlns="http://www.w3.org/2000/svg">
<path d="M0.554688 11.6656V10.2948C0.554688 9.95451 0.642187 9.64583 0.817187 9.36875C0.992188 9.09167 1.23524 8.88507 1.54635 8.74896C2.25608 8.43785 2.89531 8.21424 3.46406 8.07813C4.03281 7.94201 4.61858 7.87396 5.22135 7.87396C5.82413 7.87396 6.40747 7.94201 6.97135 8.07813C7.53524 8.21424 8.17205 8.43785 8.88177 8.74896C9.19288 8.88507 9.43837 9.09167 9.61823 9.36875C9.79809 9.64583 9.88802 9.95451 9.88802 10.2948V11.6656H0.554688ZM10.763 11.6656V10.2948C10.763 9.68229 10.6075 9.17917 10.2964 8.78542C9.98524 8.39167 9.57691 8.07326 9.07135 7.83021C9.74219 7.90799 10.3741 8.02222 10.9672 8.17292C11.5602 8.32361 12.0415 8.49618 12.4109 8.69063C12.7318 8.87535 12.9845 9.10382 13.1693 9.37604C13.354 9.64826 13.4464 9.95451 13.4464 10.2948V11.6656H10.763ZM5.22135 6.98438C4.57969 6.98438 4.05469 6.78021 3.64635 6.37188C3.23802 5.96354 3.03385 5.43854 3.03385 4.79688C3.03385 4.15521 3.23802 3.63021 3.64635 3.22188C4.05469 2.81354 4.57969 2.60938 5.22135 2.60938C5.86302 2.60938 6.38802 2.81354 6.79635 3.22188C7.20469 3.63021 7.40885 4.15521 7.40885 4.79688C7.40885 5.43854 7.20469 5.96354 6.79635 6.37188C6.38802 6.78021 5.86302 6.98438 5.22135 6.98438ZM10.4714 4.79688C10.4714 5.43854 10.2672 5.96354 9.85885 6.37188C9.45052 6.78021 8.92552 6.98438 8.28385 6.98438C8.17691 6.98438 8.05781 6.97708 7.92656 6.9625C7.79531 6.94792 7.67622 6.92118 7.56927 6.88229C7.8026 6.63924 7.98003 6.34028 8.10156 5.98542C8.22309 5.63056 8.28385 5.23438 8.28385 4.79688C8.28385 4.35938 8.22309 3.97292 8.10156 3.6375C7.98003 3.30208 7.8026 2.9934 7.56927 2.71146C7.67622 2.68229 7.79531 2.65799 7.92656 2.63854C8.05781 2.6191 8.17691 2.60938 8.28385 2.60938C8.92552 2.60938 9.45052 2.81354 9.85885 3.22188C10.2672 3.63021 10.4714 4.15521 10.4714 4.79688ZM1.42969 10.7906H9.01302V10.2948C9.01302 10.1392 8.96684 9.98854 8.87448 9.84271C8.78212 9.69688 8.66788 9.59479 8.53177 9.53646C7.83177 9.22535 7.24358 9.01632 6.76719 8.90938C6.2908 8.80243 5.77552 8.74896 5.22135 8.74896C4.66719 8.74896 4.14948 8.80243 3.66823 8.90938C3.18698 9.01632 2.59635 9.22535 1.89635 9.53646C1.76024 9.59479 1.64844 9.69688 1.56094 9.84271C1.47344 9.98854 1.42969 10.1392 1.42969 10.2948V10.7906ZM5.22135 6.10938C5.60052 6.10938 5.91406 5.98542 6.16198 5.7375C6.4099 5.48958 6.53385 5.17604 6.53385 4.79688C6.53385 4.41771 6.4099 4.10417 6.16198 3.85625C5.91406 3.60833 5.60052 3.48438 5.22135 3.48438C4.84219 3.48438 4.52865 3.60833 4.28073 3.85625C4.03281 4.10417 3.90885 4.41771 3.90885 4.79688C3.90885 5.17604 4.03281 5.48958 4.28073 5.7375C4.52865 5.98542 4.84219 6.10938 5.22135 6.10938Z" fill="#939393"/>
</svg>
