<svg width="20" height="20" viewBox="0 0 20 20" fill="none" xmlns="http://www.w3.org/2000/svg">
<path d="M0.789062 16.666V14.7077C0.789062 14.2216 0.914062 13.7806 1.16406 13.3848C1.41406 12.9889 1.76128 12.6938 2.20573 12.4993C3.21962 12.0549 4.13281 11.7355 4.94531 11.541C5.75781 11.3466 6.59462 11.2493 7.45573 11.2493C8.31684 11.2493 9.15017 11.3466 9.95573 11.541C10.7613 11.7355 11.671 12.0549 12.6849 12.4993C13.1293 12.6938 13.48 12.9889 13.737 13.3848C13.9939 13.7806 14.1224 14.2216 14.1224 14.7077V16.666H0.789062ZM15.3724 16.666V14.7077C15.3724 13.8327 15.1502 13.1139 14.7057 12.5514C14.2613 11.9889 13.678 11.5341 12.9557 11.1868C13.9141 11.298 14.8168 11.4612 15.6641 11.6764C16.5113 11.8917 17.1988 12.1382 17.7266 12.416C18.1849 12.6799 18.546 13.0063 18.8099 13.3952C19.0738 13.7841 19.2057 14.2216 19.2057 14.7077V16.666H15.3724ZM7.45573 9.97852C6.53906 9.97852 5.78906 9.68685 5.20573 9.10352C4.6224 8.52018 4.33073 7.77018 4.33073 6.85352C4.33073 5.93685 4.6224 5.18685 5.20573 4.60352C5.78906 4.02018 6.53906 3.72852 7.45573 3.72852C8.3724 3.72852 9.1224 4.02018 9.70573 4.60352C10.2891 5.18685 10.5807 5.93685 10.5807 6.85352C10.5807 7.77018 10.2891 8.52018 9.70573 9.10352C9.1224 9.68685 8.3724 9.97852 7.45573 9.97852ZM14.9557 6.85352C14.9557 7.77018 14.6641 8.52018 14.0807 9.10352C13.4974 9.68685 12.7474 9.97852 11.8307 9.97852C11.678 9.97852 11.5078 9.9681 11.3203 9.94727C11.1328 9.92643 10.9627 9.88824 10.8099 9.83268C11.1432 9.48546 11.3967 9.05838 11.5703 8.55143C11.7439 8.04449 11.8307 7.47852 11.8307 6.85352C11.8307 6.22852 11.7439 5.67643 11.5703 5.19727C11.3967 4.7181 11.1432 4.27713 10.8099 3.87435C10.9627 3.83268 11.1328 3.79796 11.3203 3.77018C11.5078 3.7424 11.678 3.72852 11.8307 3.72852C12.7474 3.72852 13.4974 4.02018 14.0807 4.60352C14.6641 5.18685 14.9557 5.93685 14.9557 6.85352ZM2.03906 15.416H12.8724V14.7077C12.8724 14.4855 12.8064 14.2702 12.6745 14.0618C12.5425 13.8535 12.3793 13.7077 12.1849 13.6243C11.1849 13.1799 10.3446 12.8813 9.66406 12.7285C8.98351 12.5757 8.2474 12.4993 7.45573 12.4993C6.66406 12.4993 5.92448 12.5757 5.23698 12.7285C4.54948 12.8813 3.70573 13.1799 2.70573 13.6243C2.51128 13.7077 2.35156 13.8535 2.22656 14.0618C2.10156 14.2702 2.03906 14.4855 2.03906 14.7077V15.416ZM7.45573 8.72852C7.9974 8.72852 8.44531 8.55143 8.79948 8.19727C9.15365 7.8431 9.33073 7.39518 9.33073 6.85352C9.33073 6.31185 9.15365 5.86393 8.79948 5.50977C8.44531 5.1556 7.9974 4.97852 7.45573 4.97852C6.91406 4.97852 6.46615 5.1556 6.11198 5.50977C5.75781 5.86393 5.58073 6.31185 5.58073 6.85352C5.58073 7.39518 5.75781 7.8431 6.11198 8.19727C6.46615 8.55143 6.91406 8.72852 7.45573 8.72852Z" fill="#939393"/>
</svg>
