<svg width="20" height="20" viewBox="0 0 20 20" fill="none" xmlns="http://www.w3.org/2000/svg">
<path d="M11.2487 11.2507C10.5543 11.2507 9.96397 11.0076 9.47786 10.5215C8.99175 10.0354 8.7487 9.4451 8.7487 8.75065C8.7487 8.05621 8.99175 7.46593 9.47786 6.97982C9.96397 6.49371 10.5543 6.25065 11.2487 6.25065C11.9431 6.25065 12.5334 6.49371 13.0195 6.97982C13.5056 7.46593 13.7487 8.05621 13.7487 8.75065C13.7487 9.4451 13.5056 10.0354 13.0195 10.5215C12.5334 11.0076 11.9431 11.2507 11.2487 11.2507ZM4.58203 14.1673C4.23828 14.1673 3.94401 14.0449 3.69922 13.8001C3.45443 13.5553 3.33203 13.2611 3.33203 12.9173V4.58398C3.33203 4.24023 3.45443 3.94596 3.69922 3.70117C3.94401 3.45638 4.23828 3.33398 4.58203 3.33398H17.9154C18.2591 3.33398 18.5534 3.45638 18.7982 3.70117C19.043 3.94596 19.1654 4.24023 19.1654 4.58398V12.9173C19.1654 13.2611 19.043 13.5553 18.7982 13.8001C18.5534 14.0449 18.2591 14.1673 17.9154 14.1673H4.58203ZM6.66536 12.9173H15.832C15.832 12.334 16.0334 11.8409 16.4362 11.4382C16.839 11.0354 17.332 10.834 17.9154 10.834V6.66732C17.332 6.66732 16.839 6.46593 16.4362 6.06315C16.0334 5.66037 15.832 5.16732 15.832 4.58398H6.66536C6.66536 5.16732 6.46398 5.66037 6.0612 6.06315C5.65842 6.46593 5.16536 6.66732 4.58203 6.66732V10.834C5.16536 10.834 5.65842 11.0354 6.0612 11.4382C6.46398 11.8409 6.66536 12.334 6.66536 12.9173ZM16.6654 16.6673H2.08203C1.73828 16.6673 1.44401 16.5449 1.19922 16.3001C0.954427 16.0553 0.832031 15.7611 0.832031 15.4173V5.83398H2.08203V15.4173H16.6654V16.6673Z" fill="#939393"/>
</svg>
