<svg width="15" height="15" viewBox="0 0 15 15" fill="none" xmlns="http://www.w3.org/2000/svg">
<path d="M9.27323 11.6816H4.70433C4.46874 11.6816 4.26707 11.5977 4.0993 11.4299C3.93154 11.2622 3.84766 11.0605 3.84766 10.8249V4.24282H4.70433V10.8249H9.27323V11.6816ZM6.67466 3.8716C6.35103 3.8716 6.07738 3.75976 5.85369 3.53607C5.63 3.31239 5.51816 3.03873 5.51816 2.7151C5.51816 2.39147 5.63 2.11781 5.85369 1.89412C6.07738 1.67044 6.35103 1.55859 6.67466 1.55859C6.99829 1.55859 7.27195 1.67044 7.49564 1.89412C7.71932 2.11781 7.83117 2.39147 7.83117 2.7151C7.83117 3.03873 7.71932 3.31239 7.49564 3.53607C7.27195 3.75976 6.99829 3.8716 6.67466 3.8716ZM9.84434 12.9808V10.2538H6.34627C6.05179 10.2538 5.7997 10.1503 5.58999 9.94343C5.38029 9.73652 5.27544 9.48778 5.27544 9.19723V5.94188C5.27544 5.5541 5.41054 5.22633 5.68074 4.95857C5.95095 4.69081 6.28172 4.55694 6.67305 4.55694C7.06439 4.55694 7.39569 4.69081 7.66697 4.95857C7.93825 5.22633 8.07389 5.5541 8.07389 5.94188V8.826H9.63017C9.92466 8.826 10.1768 8.92946 10.3865 9.13636C10.5962 9.34328 10.701 9.59201 10.701 9.88256V12.9808H9.84434Z" fill="#939393"/>
</svg>
