<svg width="20" height="20" viewBox="0 0 20 20" fill="none" xmlns="http://www.w3.org/2000/svg">
<path d="M10.0807 14.8555C10.303 14.8555 10.4905 14.7791 10.6432 14.6263C10.796 14.4735 10.8724 14.286 10.8724 14.0638C10.8724 13.8416 10.796 13.6541 10.6432 13.5013C10.4905 13.3485 10.303 13.2721 10.0807 13.2721C9.85851 13.2721 9.67101 13.3485 9.51823 13.5013C9.36545 13.6541 9.28906 13.8416 9.28906 14.0638C9.28906 14.286 9.36545 14.4735 9.51823 14.6263C9.67101 14.7791 9.85851 14.8555 10.0807 14.8555ZM9.35156 11.8138H10.5807C10.5807 11.4527 10.6259 11.1228 10.7161 10.8242C10.8064 10.5256 11.0877 10.1819 11.5599 9.79297C11.9905 9.43186 12.296 9.07769 12.4766 8.73047C12.6571 8.38325 12.7474 8.0013 12.7474 7.58464C12.7474 6.84852 12.5078 6.25825 12.0286 5.8138C11.5495 5.36936 10.9141 5.14714 10.1224 5.14714C9.44184 5.14714 8.84115 5.31727 8.32031 5.65755C7.79948 5.99783 7.42101 6.46658 7.1849 7.0638L8.28906 7.48047C8.44184 7.09158 8.67101 6.7895 8.97656 6.57422C9.28212 6.35894 9.64323 6.2513 10.0599 6.2513C10.5321 6.2513 10.9141 6.37977 11.2057 6.63672C11.4974 6.89366 11.6432 7.22352 11.6432 7.6263C11.6432 7.93186 11.553 8.22005 11.3724 8.49088C11.1918 8.76172 10.928 9.04297 10.5807 9.33463C10.1641 9.69575 9.85503 10.0534 9.65365 10.4076C9.45226 10.7617 9.35156 11.2305 9.35156 11.8138ZM9.9974 18.3346C8.85851 18.3346 7.78212 18.1159 6.76823 17.6784C5.75434 17.2409 4.86892 16.6437 4.11198 15.8867C3.35503 15.1298 2.75781 14.2444 2.32031 13.2305C1.88281 12.2166 1.66406 11.1402 1.66406 10.0013C1.66406 8.84852 1.88281 7.76519 2.32031 6.7513C2.75781 5.73741 3.35503 4.85547 4.11198 4.10547C4.86892 3.35547 5.75434 2.76172 6.76823 2.32422C7.78212 1.88672 8.85851 1.66797 9.9974 1.66797C11.1502 1.66797 12.2335 1.88672 13.2474 2.32422C14.2613 2.76172 15.1432 3.35547 15.8932 4.10547C16.6432 4.85547 17.237 5.73741 17.6745 6.7513C18.112 7.76519 18.3307 8.84852 18.3307 10.0013C18.3307 11.1402 18.112 12.2166 17.6745 13.2305C17.237 14.2444 16.6432 15.1298 15.8932 15.8867C15.1432 16.6437 14.2613 17.2409 13.2474 17.6784C12.2335 18.1159 11.1502 18.3346 9.9974 18.3346Z" fill="#939393"/>
</svg>
