<svg width="14" height="14" viewBox="0 0 14 14" fill="none" xmlns="http://www.w3.org/2000/svg">
<g clip-path="url(#clip0_58_30)">
<path d="M9.2601 6.83645C9.34905 6.74751 9.46597 6.70288 9.58289 6.70288C9.69982 6.70288 9.81674 6.74751 9.90596 6.83645C9.99193 6.92272 10.0395 7.03757 10.0395 7.15982C10.0395 7.2818 9.99223 7.39635 9.90596 7.48231C9.81969 7.56888 9.70515 7.61622 9.58317 7.61622C9.58287 7.61622 9.58287 7.61622 9.58287 7.61622C9.46059 7.61622 9.34607 7.56861 9.2598 7.48264C9.08188 7.30442 9.08188 7.01465 9.2601 6.83645Z" fill="white"/>
<path d="M0.401652 5.84379L5.84352 0.401896C6.10236 0.14276 6.44656 0.000244141 6.81278 0.000244141H12.629C13.385 0.000244141 14 0.615205 14 1.37115V7.18738C14 7.5536 13.8575 7.89783 13.5983 8.15664L8.15639 13.5985C7.89756 13.8577 7.55305 14.0002 7.18714 14.0002C6.82093 14.0002 6.47639 13.8574 6.21789 13.5985L0.401652 7.7826C0.142817 7.52377 0 7.17926 0 6.81305C0 6.44711 0.142515 6.10263 0.401652 5.84379ZM11.8154 3.90797C12.0454 3.67798 12.1721 3.37217 12.1721 3.04669C12.1721 2.72095 12.045 2.41481 11.8147 2.18482C11.5854 1.95516 11.2792 1.82812 10.9535 1.82812C10.628 1.82812 10.3222 1.95486 10.0919 2.18512C9.86191 2.41478 9.73487 2.72092 9.73487 3.04669C9.73487 3.37217 9.86161 3.67801 10.0919 3.90827C10.3222 4.13853 10.628 4.26527 10.9535 4.26527C11.2792 4.26527 11.5854 4.13823 11.8154 3.90797ZM8.61361 8.12899C8.87245 8.38783 9.21665 8.53034 9.58286 8.53034C9.58316 8.53034 9.58316 8.53034 9.58316 8.53034C9.94968 8.53034 10.2936 8.38783 10.5524 8.12899C10.811 7.87046 10.9534 7.52656 10.9534 7.16001C10.9534 6.79347 10.8109 6.44927 10.5521 6.19046C10.0178 5.65613 9.14788 5.65613 8.61358 6.19046C8.07929 6.72508 8.07929 7.5947 8.61361 8.12899ZM6.38386 9.90122C6.38386 10.1535 6.58856 10.3582 6.84083 10.3582C7.0931 10.3582 7.2978 10.1535 7.2978 9.90122V4.4176C7.2978 4.16533 7.0931 3.96063 6.84083 3.96063C6.58856 3.96063 6.38386 4.16533 6.38386 4.4176V9.90122ZM3.12998 8.12899C3.38882 8.38783 3.73302 8.53034 4.09924 8.53034C4.09954 8.53034 4.09954 8.53034 4.09954 8.53034C4.46605 8.53034 4.80998 8.38783 5.06879 8.12899C5.32733 7.87046 5.46982 7.52656 5.46982 7.16001C5.46982 6.79347 5.32733 6.44927 5.06849 6.19046C4.53417 5.65613 3.66425 5.65613 3.12996 6.19046C2.59566 6.72508 2.59566 7.5947 3.12998 8.12899Z" fill="white"/>
<path d="M3.77647 6.83645C3.86542 6.74751 3.98235 6.70288 4.09927 6.70288C4.21619 6.70288 4.33311 6.74751 4.42233 6.83645C4.5083 6.92272 4.55591 7.03757 4.55591 7.15982C4.55591 7.2818 4.5086 7.39635 4.42233 7.48231C4.33606 7.56888 4.22152 7.61622 4.09954 7.61622C4.09924 7.61622 4.09924 7.61622 4.09924 7.61622C3.97696 7.61622 3.86244 7.56861 3.77617 7.48264C3.59825 7.30442 3.59825 7.01465 3.77647 6.83645Z" fill="white"/>
</g>
<defs>
<clipPath id="clip0_58_30">
<rect width="14" height="14" fill="white" transform="matrix(-1 0 0 1 14 0)"/>
</clipPath>
</defs>
</svg>
