<svg width="24" height="25" viewBox="0 0 24 25" fill="none" xmlns="http://www.w3.org/2000/svg">
<path d="M11 21.0469V19.5469H19.5V11.9469C19.5 10.9802 19.2917 10.051 18.875 9.15938C18.4583 8.26771 17.9 7.48021 17.2 6.79688C16.5 6.11354 15.7 5.56771 14.8 5.15937C13.9 4.75104 12.9667 4.54688 12 4.54688C11.0333 4.54688 10.1 4.75104 9.2 5.15937C8.3 5.56771 7.5 6.11354 6.8 6.79688C6.1 7.48021 5.54167 8.26771 5.125 9.15938C4.70833 10.051 4.5 10.9802 4.5 11.9469V18.0469H4C3.45 18.0469 2.97917 17.851 2.5875 17.4594C2.19583 17.0677 2 16.5969 2 16.0469V14.0469C2 13.6635 2.09167 13.326 2.275 13.0344C2.45833 12.7427 2.7 12.5052 3 12.3219L3.075 10.9969C3.225 9.78021 3.57083 8.68021 4.1125 7.69688C4.65417 6.71354 5.32917 5.88021 6.1375 5.19688C6.94583 4.51354 7.85417 3.98438 8.8625 3.60938C9.87083 3.23438 10.9167 3.04688 12 3.04688C13.1 3.04688 14.1542 3.23438 15.1625 3.60938C16.1708 3.98438 17.075 4.51771 17.875 5.20938C18.675 5.90104 19.3458 6.73438 19.8875 7.70937C20.4292 8.68438 20.775 9.77187 20.925 10.9719L21 12.2719C21.3 12.4219 21.5417 12.6427 21.725 12.9344C21.9083 13.226 22 13.5469 22 13.8969V16.1969C22 16.5635 21.9083 16.8885 21.725 17.1719C21.5417 17.4552 21.3 17.6719 21 17.8219V19.5469C21 19.9594 20.8531 20.3125 20.5594 20.6063C20.2656 20.9 19.9125 21.0469 19.5 21.0469H11ZM9 13.7969C8.8 13.7969 8.625 13.7219 8.475 13.5719C8.325 13.4219 8.25 13.2427 8.25 13.0344C8.25 12.826 8.325 12.651 8.475 12.5094C8.625 12.3677 8.80417 12.2969 9.0125 12.2969C9.22083 12.2969 9.39583 12.3688 9.5375 12.5125C9.67917 12.6562 9.75 12.8344 9.75 13.0469C9.75 13.2469 9.67812 13.4219 9.53438 13.5719C9.39062 13.7219 9.2125 13.7969 9 13.7969ZM15 13.7969C14.8 13.7969 14.625 13.7219 14.475 13.5719C14.325 13.4219 14.25 13.2427 14.25 13.0344C14.25 12.826 14.325 12.651 14.475 12.5094C14.625 12.3677 14.8042 12.2969 15.0125 12.2969C15.2208 12.2969 15.3958 12.3688 15.5375 12.5125C15.6792 12.6562 15.75 12.8344 15.75 13.0469C15.75 13.2469 15.6781 13.4219 15.5344 13.5719C15.3906 13.7219 15.2125 13.7969 15 13.7969ZM6.025 12.4969C5.95833 11.5135 6.09583 10.6219 6.4375 9.82188C6.77917 9.02187 7.2375 8.34271 7.8125 7.78438C8.3875 7.22604 9.05 6.79688 9.8 6.49688C10.55 6.19688 11.3 6.04688 12.05 6.04688C13.5667 6.04688 14.8417 6.52604 15.875 7.48438C16.9083 8.44271 17.5417 9.63854 17.775 11.0719C16.2083 11.0552 14.8292 10.6344 13.6375 9.80938C12.4458 8.98438 11.525 7.91354 10.875 6.59687C10.6083 7.94688 10.0458 9.14271 9.1875 10.1844C8.32917 11.226 7.275 11.9969 6.025 12.4969Z" fill="#1C1D1E"/>
</svg>
