<svg width="50" height="50" viewBox="0 0 50 50" fill="none" xmlns="http://www.w3.org/2000/svg">
<g clip-path="url(#clip0_11507_64791)">
<path d="M25 50C38.8071 50 50 38.8071 50 25C50 11.1929 38.8071 0 25 0C11.1929 0 0 11.1929 0 25C0 38.8071 11.1929 50 25 50Z" fill="#039BE5"/>
<path d="M11.4414 24.4583L35.5455 15.1645C36.6643 14.7604 37.6413 15.4374 37.2788 17.1291L37.2809 17.127L33.1768 36.4624C32.8726 37.8333 32.058 38.1666 30.9184 37.5208L24.6684 32.9145L21.6538 35.8187C21.3205 36.152 21.0393 36.4333 20.3934 36.4333L20.8372 30.0729L32.4205 19.6083C32.9247 19.1645 32.308 18.9145 31.6434 19.3562L17.3289 28.3687L11.158 26.4437C9.81843 26.0187 9.78927 25.1041 11.4414 24.4583Z" fill="white"/>
</g>
<defs>
<clipPath id="clip0_11507_64791">
<rect width="50" height="50" fill="white"/>
</clipPath>
</defs>
</svg>
