<svg width="40" height="40" viewBox="0 0 40 40" fill="none" xmlns="http://www.w3.org/2000/svg">
<g clip-path="url(#clip0_11507_190)">
<path d="M20 40C31.0457 40 40 31.0457 40 20C40 8.9543 31.0457 0 20 0C8.9543 0 0 8.9543 0 20C0 31.0457 8.9543 40 20 40Z" fill="#039BE5"/>
<path d="M9.15308 19.567L28.4364 12.132C29.3314 11.8087 30.1131 12.3503 29.8231 13.7037L29.8247 13.702L26.5414 29.1703C26.2981 30.267 25.6464 30.5337 24.7347 30.017L19.7347 26.332L17.3231 28.6553C17.0564 28.922 16.8314 29.147 16.3147 29.147L16.6697 24.0587L25.9364 15.687C26.3397 15.332 25.8464 15.132 25.3147 15.4853L13.8631 22.6953L8.92641 21.1553C7.85475 20.8153 7.83141 20.0837 9.15308 19.567Z" fill="white"/>
</g>
<defs>
<clipPath id="clip0_11507_190">
<rect width="40" height="40" fill="white"/>
</clipPath>
</defs>
</svg>
