<svg width="16" height="16" viewBox="0 0 16 16" fill="none" xmlns="http://www.w3.org/2000/svg">
<path d="M5.90625 14.5625L4.71875 12.5312L2.35938 12.0469L2.625 9.75L1.125 8L2.625 6.26562L2.35938 3.96875L4.71875 3.48438L5.90625 1.4375L8 2.40625L10.0938 1.4375L11.2969 3.48438L13.6406 3.96875L13.375 6.26562L14.875 8L13.375 9.75L13.6406 12.0469L11.2969 12.5312L10.0938 14.5625L8 13.5938L5.90625 14.5625ZM6.32812 13.3281L8 12.625L9.71875 13.3281L10.7656 11.7656L12.5938 11.2969L12.4062 9.4375L13.6719 8L12.4062 6.53125L12.5938 4.67188L10.7656 4.23438L9.6875 2.67188L8 3.375L6.28125 2.67188L5.23438 4.23438L3.40625 4.67188L3.59375 6.53125L2.32812 8L3.59375 9.4375L3.40625 11.3281L5.23438 11.7656L6.32812 13.3281ZM7.32812 10.0781L10.875 6.5625L10.1719 5.92188L7.32812 8.73438L5.84375 7.1875L5.125 7.89062L7.32812 10.0781Z" fill="#1C1D1E"/>
</svg>
