<svg width="50" height="50" viewBox="0 0 50 50" fill="none" xmlns="http://www.w3.org/2000/svg">
<path d="M25.741 48.5132C39.1375 48.5132 49.9976 37.6532 49.9976 24.2566C49.9976 10.8601 39.1375 0 25.741 0C12.3444 0 1.48438 10.8601 1.48438 24.2566C1.48438 37.6532 12.3444 48.5132 25.741 48.5132Z" fill="#7D3DAF"/>
<path d="M39.982 15.8111L39.9731 15.776C39.2627 12.9034 36.0593 9.82109 33.1173 9.17982L33.0843 9.17299C28.326 8.26525 23.5014 8.26525 18.7441 9.17299L18.7099 9.17982C15.7691 9.82109 12.5657 12.9034 11.8541 15.776L11.8463 15.8111C10.9679 19.8227 10.9679 23.8908 11.8463 27.9024L11.8541 27.9376C12.5353 30.6876 15.5002 33.6282 18.3322 34.4371V37.6435C18.3322 38.804 19.7465 39.374 20.5507 38.5366L23.7996 35.1595C24.5041 35.199 25.2091 35.2209 25.9141 35.2209C28.3094 35.2209 30.7056 34.9945 33.0843 34.5406L33.1173 34.5338C36.0593 33.8926 39.2627 30.8101 39.9731 27.9377L39.982 27.9026C40.8604 23.8908 40.8604 19.8227 39.982 15.8111ZM37.411 27.3208C36.9367 29.1947 34.5044 31.5245 32.5719 31.955C30.0419 32.4361 27.4917 32.6418 24.9443 32.5711C24.8936 32.5698 24.8449 32.5895 24.8096 32.6258C24.448 32.9968 22.4375 35.0608 22.4375 35.0608L19.9144 37.6503C19.7299 37.8426 19.4059 37.7118 19.4059 37.4463V32.1343C19.4059 32.0466 19.3431 31.9721 19.257 31.9551C19.2565 31.9551 19.2575 31.9553 19.257 31.9551C17.3244 31.5248 14.8916 29.1947 14.4163 27.3206C13.6257 23.6947 13.6257 20.0188 14.4163 16.3927C14.8916 14.5187 17.323 12.1889 19.2556 11.7584C23.6741 10.9181 28.1543 10.9181 32.5719 11.7584C34.5054 12.1889 36.9367 14.5187 37.411 16.3927C38.2025 20.0188 38.2025 23.6947 37.411 27.3208Z" fill="white"/>
<path d="M30.1212 29.773C29.8241 29.6828 29.5409 29.6222 29.278 29.5131C26.5533 28.3826 24.0455 26.9243 22.0592 24.6886C20.9296 23.4173 20.0455 21.982 19.2981 20.4631C18.9438 19.7428 18.645 18.9943 18.3407 18.2506C18.0631 17.5723 18.472 16.8718 18.9025 16.3609C19.3065 15.8813 19.8263 15.5143 20.3892 15.2438C20.8288 15.0327 21.2621 15.1544 21.5831 15.5269C22.2768 16.3322 22.9141 17.1786 23.4302 18.112C23.7475 18.686 23.6604 19.3878 23.0854 19.7786C22.9455 19.8736 22.8181 19.9851 22.688 20.0923C22.5738 20.1862 22.4663 20.2812 22.3879 20.4085C22.2449 20.6414 22.2381 20.916 22.3302 21.1693C23.0394 23.1183 24.2349 24.6338 26.1965 25.4501C26.5104 25.5806 26.8257 25.7326 27.1873 25.6906C27.793 25.6197 27.9889 24.9554 28.4134 24.6083C28.8283 24.2693 29.3583 24.2647 29.8052 24.5475C30.2521 24.8304 30.6854 25.1339 31.116 25.4409C31.5388 25.742 31.9596 26.0367 32.3496 26.3801C32.7244 26.7102 32.8536 27.1435 32.6425 27.5915C32.2559 28.4122 31.6934 29.0949 30.8821 29.5307C30.6531 29.6536 30.3796 29.6935 30.1212 29.773C30.3796 29.6935 29.8241 29.6828 30.1212 29.773Z" fill="white"/>
<path d="M25.9277 14.3023C29.4917 14.4021 32.419 16.7674 33.0464 20.291C33.1532 20.8913 33.1912 21.5052 33.2388 22.1145C33.2588 22.3708 33.1136 22.6143 32.837 22.6176C32.5514 22.6211 32.4228 22.3821 32.4043 22.1258C32.3675 21.6187 32.3422 21.1092 32.2722 20.6063C31.9033 17.9513 29.7862 15.7548 27.1436 15.2835C26.7459 15.2125 26.339 15.1939 25.9361 15.1516C25.6814 15.1249 25.348 15.1095 25.2915 14.7929C25.2441 14.5275 25.4682 14.3162 25.7209 14.3027C25.7896 14.2988 25.8586 14.302 25.9277 14.3023C29.4917 14.4021 25.8586 14.302 25.9277 14.3023Z" fill="white"/>
<path d="M31.3378 21.325C31.332 21.3695 31.3288 21.4742 31.3028 21.5727C31.2082 21.9304 30.6658 21.9753 30.5408 21.6142C30.5038 21.5071 30.4983 21.3851 30.498 21.2696C30.4967 20.5148 30.3327 19.7608 29.952 19.104C29.5608 18.429 28.9628 17.8614 28.2617 17.518C27.8377 17.3104 27.3791 17.1814 26.9145 17.1045C26.7114 17.0709 26.5061 17.0506 26.302 17.0221C26.0546 16.9877 25.9227 16.8301 25.9343 16.5864C25.9453 16.358 26.1122 16.1938 26.3611 16.2079C27.179 16.2543 27.969 16.4311 28.6962 16.8161C30.1749 17.5992 31.0196 18.8353 31.2661 20.4858C31.2772 20.5604 31.2953 20.6346 31.3009 20.7096C31.3148 20.895 31.3237 21.0806 31.3378 21.325C31.332 21.3695 31.3237 21.0806 31.3378 21.325Z" fill="white"/>
<path d="M29.1187 21.2354C28.8204 21.2407 28.6609 21.0758 28.6301 20.8024C28.6088 20.6117 28.5919 20.4187 28.5464 20.2332C28.4567 19.8678 28.2627 19.5295 27.9554 19.3056C27.8103 19.1999 27.6459 19.1228 27.4738 19.0732C27.2551 19.0101 27.028 19.0274 26.8096 18.974C26.5727 18.9159 26.4416 18.724 26.479 18.5016C26.5128 18.2993 26.7096 18.1414 26.9307 18.1574C28.3125 18.2572 29.3001 18.9716 29.4411 20.5982C29.4509 20.713 29.4627 20.8343 29.4372 20.9441C29.3937 21.132 29.2545 21.2262 29.1187 21.2354C29.2545 21.2262 28.8204 21.2407 29.1187 21.2354Z" fill="white"/>
</svg>
