<svg width="40" height="40" viewBox="0 0 40 40" fill="none" xmlns="http://www.w3.org/2000/svg">
<path d="M20.5928 38.8106C31.31 38.8106 39.9981 30.1225 39.9981 19.4053C39.9981 8.68804 31.31 0 20.5928 0C9.87555 0 1.1875 8.68804 1.1875 19.4053C1.1875 30.1225 9.87555 38.8106 20.5928 38.8106Z" fill="#7D3DAF"/>
<path d="M31.9887 12.6481L31.9816 12.62C31.4133 10.322 28.8505 7.85609 26.497 7.34307L26.4705 7.33761C22.664 6.61142 18.8042 6.61142 14.9984 7.33761L14.9711 7.34307C12.6184 7.85609 10.0557 10.322 9.48644 12.62L9.4802 12.6481C8.77743 15.8574 8.77743 19.1118 9.4802 22.3211L9.48644 22.3493C10.0314 24.5493 12.4033 26.9018 14.6689 27.5489V30.114C14.6689 31.0424 15.8004 31.4984 16.4437 30.8285L19.0428 28.1268C19.6064 28.1584 20.1704 28.176 20.7344 28.176C22.6507 28.176 24.5676 27.9948 26.4705 27.6317L26.497 27.6263C28.8505 27.1133 31.4133 24.6473 31.9816 22.3494L31.9887 22.3213C32.6915 19.1118 32.6915 15.8574 31.9887 12.6481ZM29.932 21.8558C29.5525 23.3549 27.6067 25.2188 26.0606 25.5632C24.0366 25.9481 21.9965 26.1126 19.9585 26.0561C19.918 26.0551 19.8791 26.0708 19.8508 26.0998C19.5615 26.3966 17.9531 28.0478 17.9531 28.0478L15.9347 30.1195C15.7871 30.2733 15.5278 30.1686 15.5278 29.9562V25.7067C15.5278 25.6365 15.4776 25.5769 15.4087 25.5633C15.4084 25.5633 15.4091 25.5635 15.4087 25.5633C13.8627 25.2191 11.9164 23.3549 11.5361 21.8557C10.9037 18.9549 10.9037 16.0143 11.5361 13.1134C11.9164 11.6142 13.8615 9.75032 15.4076 9.40598C18.9424 8.73368 22.5265 8.73368 26.0606 9.40598C27.6075 9.75032 29.5525 11.6142 29.932 13.1134C30.5651 16.0143 30.5651 18.9549 29.932 21.8558Z" fill="white"/>
<path d="M24.0985 23.8172C23.8608 23.7451 23.6342 23.6966 23.4239 23.6093C21.2442 22.7049 19.238 21.5382 17.649 19.7497C16.7452 18.7327 16.038 17.5844 15.4401 16.3693C15.1566 15.7931 14.9176 15.1942 14.6741 14.5993C14.4521 14.0567 14.7791 13.4963 15.1235 13.0875C15.4468 12.7039 15.8626 12.4103 16.313 12.1939C16.6646 12.025 17.0113 12.1224 17.2681 12.4203C17.823 13.0646 18.3328 13.7417 18.7457 14.4884C18.9995 14.9477 18.9299 15.5091 18.4699 15.8217C18.358 15.8977 18.2561 15.9869 18.1519 16.0727C18.0606 16.1478 17.9746 16.2238 17.9119 16.3256C17.7975 16.5119 17.7921 16.7317 17.8657 16.9342C18.4331 18.4935 19.3895 19.7059 20.9588 20.3589C21.2099 20.4633 21.4621 20.5849 21.7514 20.5513C22.2359 20.4946 22.3927 19.9631 22.7323 19.6855C23.0642 19.4142 23.4882 19.4106 23.8457 19.6368C24.2033 19.8631 24.5499 20.106 24.8944 20.3515C25.2326 20.5924 25.5692 20.8282 25.8812 21.1029C26.1811 21.367 26.2844 21.7136 26.1155 22.072C25.8062 22.7286 25.3563 23.2748 24.7073 23.6234C24.5241 23.7217 24.3052 23.7536 24.0985 23.8172C24.3052 23.7536 23.8608 23.7451 24.0985 23.8172Z" fill="white"/>
<path d="M20.7445 11.4426C23.5957 11.5225 25.9375 13.4147 26.4394 16.2335C26.5249 16.7138 26.5553 17.2049 26.5934 17.6924C26.6094 17.8974 26.4933 18.0923 26.272 18.0948C26.0434 18.0977 25.9406 17.9065 25.9258 17.7014C25.8964 17.2957 25.8761 16.8881 25.8201 16.4858C25.525 14.3618 23.8313 12.6046 21.7173 12.2276C21.3991 12.1708 21.0735 12.1559 20.7512 12.1221C20.5474 12.1007 20.2807 12.0883 20.2356 11.8351C20.1976 11.6228 20.3769 11.4538 20.5791 11.4429C20.634 11.4399 20.6893 11.4424 20.7445 11.4426C23.5957 11.5225 20.6893 11.4424 20.7445 11.4426Z" fill="white"/>
<path d="M25.0734 17.0592C25.0688 17.0948 25.0662 17.1785 25.0454 17.2574C24.9697 17.5436 24.5357 17.5794 24.4357 17.2905C24.4062 17.2049 24.4018 17.1073 24.4015 17.0149C24.4005 16.4111 24.2693 15.8078 23.9648 15.2824C23.6517 14.7424 23.1734 14.2884 22.6125 14.0136C22.2733 13.8476 21.9064 13.7444 21.5347 13.6828C21.3722 13.656 21.208 13.6397 21.0448 13.6169C20.8468 13.5894 20.7413 13.4633 20.7506 13.2684C20.7593 13.0856 20.8929 12.9543 21.092 12.9655C21.7463 13.0027 22.3783 13.1441 22.9601 13.4521C24.1431 14.0785 24.8188 15.0674 25.016 16.3878C25.0249 16.4476 25.0393 16.5069 25.0439 16.5669C25.055 16.7152 25.0621 16.8637 25.0734 17.0592C25.0688 17.0948 25.0621 16.8637 25.0734 17.0592Z" fill="white"/>
<path d="M23.2965 16.9907C23.0579 16.9949 22.9303 16.8629 22.9056 16.6442C22.8886 16.4917 22.8751 16.3373 22.8387 16.1889C22.7669 15.8966 22.6117 15.6259 22.3659 15.4468C22.2498 15.3623 22.1183 15.3006 21.9806 15.2609C21.8056 15.2104 21.624 15.2242 21.4493 15.1815C21.2597 15.1351 21.1548 14.9815 21.1847 14.8036C21.2118 14.6418 21.3693 14.5155 21.5462 14.5282C22.6516 14.6081 23.4416 15.1796 23.5544 16.4809C23.5623 16.5728 23.5717 16.6698 23.5513 16.7577C23.5165 16.908 23.4051 16.9833 23.2965 16.9907C23.4051 16.9833 23.0579 16.9949 23.2965 16.9907Z" fill="white"/>
</svg>
