<svg width="50" height="50" viewBox="0 0 50 50" fill="none" xmlns="http://www.w3.org/2000/svg">
<g clip-path="url(#clip0_11507_64787)">
<path d="M25 50C38.8072 50 50 38.8072 50 25C50 11.1929 38.8072 0 25 0C11.1929 0 0 11.1929 0 25C0 38.8072 11.1929 50 25 50Z" fill="#25D366"/>
<path fill-rule="evenodd" clip-rule="evenodd" d="M25.8228 38.9102H25.8165C23.3286 38.9094 20.8839 38.2852 18.7126 37.1008L10.832 39.168L12.941 31.4647C11.6401 29.2102 10.9555 26.6528 10.9567 24.0328C10.9599 15.8364 17.6287 9.16797 25.8226 9.16797C29.7993 9.16969 33.5318 10.7178 36.3386 13.5278C39.1451 16.3375 40.69 20.0725 40.6884 24.0445C40.6851 32.2391 34.019 38.9069 25.8228 38.9102ZM19.0783 34.4095L19.5293 34.6773C21.4264 35.8031 23.6011 36.3987 25.8182 36.3997H25.8233C32.6334 36.3997 38.1762 30.8567 38.1789 24.0438C38.1801 20.7422 36.8962 17.638 34.5634 15.3024C32.2306 12.9669 29.1283 11.68 25.8281 11.6789C19.0126 11.6789 13.4697 17.2212 13.467 24.0338C13.4661 26.3684 14.1193 28.6422 15.3562 30.6094L15.65 31.0769L14.4018 35.6363L19.0783 34.4095ZM32.8039 27.245C33.0631 27.3702 33.2379 27.4548 33.3126 27.5795C33.4054 27.7344 33.4054 28.478 33.0961 29.3458C32.7865 30.2134 31.3025 31.0053 30.5889 31.112C29.9489 31.2077 29.139 31.2475 28.2493 30.9648C27.7098 30.7936 27.0179 30.565 26.1317 30.1823C22.6495 28.6788 20.2962 25.3038 19.8515 24.6658C19.8203 24.6211 19.7986 24.5898 19.7864 24.5736L19.7834 24.5697C19.5868 24.3073 18.2697 22.55 18.2697 20.7313C18.2697 19.0202 19.1101 18.1234 19.497 17.7106C19.5236 17.6823 19.5479 17.6562 19.5697 17.6325C19.9101 17.2606 20.3126 17.1677 20.5603 17.1677C20.8078 17.1677 21.0557 17.1698 21.2722 17.1808C21.2989 17.1822 21.3267 17.1819 21.3553 17.1817C21.5718 17.1805 21.8417 17.1789 22.1079 17.8184C22.2103 18.0645 22.3601 18.4294 22.5183 18.8142C22.8378 19.5923 23.1909 20.452 23.2531 20.5764C23.3461 20.7623 23.4079 20.9792 23.284 21.2272C23.2654 21.2644 23.2483 21.2995 23.2318 21.333C23.1389 21.5228 23.0704 21.6625 22.9126 21.8469C22.8506 21.9192 22.7864 21.9973 22.7223 22.0755C22.5945 22.2311 22.4667 22.3867 22.3554 22.4977C22.1695 22.6828 21.9759 22.8837 22.1926 23.2556C22.4093 23.6275 23.1548 24.8438 24.259 25.8288C25.4461 26.8875 26.4776 27.335 27.0006 27.5619C27.1026 27.6061 27.1854 27.642 27.2461 27.6723C27.6175 27.8584 27.834 27.8273 28.0508 27.5795C28.2675 27.3316 28.9793 26.4948 29.2268 26.123C29.4745 25.7512 29.7222 25.8131 30.0626 25.937C30.4032 26.0611 32.2293 26.9597 32.6007 27.1456C32.6732 27.1819 32.7411 27.2147 32.8039 27.245Z" fill="#FDFDFD"/>
</g>
<defs>
<clipPath id="clip0_11507_64787">
<rect width="50" height="50" fill="white"/>
</clipPath>
</defs>
</svg>
